<mxfile host="app.diagrams.net" modified="2024-02-09T02:01:09.943Z" agent="Mozilla/5.0 (Windows NT 10.0; Win64; x64) AppleWebKit/537.36 (KHTML, like Gecko) Chrome/121.0.0.0 Safari/537.36" etag="n7kP55WzrXU_KYxl2MJ3" version="23.1.1" type="device">
  <diagram id="C5RBs43oDa-KdzZeNtuy" name="Page-1">
    <mxGraphModel dx="1646" dy="5145" grid="1" gridSize="10" guides="1" tooltips="1" connect="1" arrows="1" fold="1" page="1" pageScale="1" pageWidth="827" pageHeight="1169" math="0" shadow="0">
      <root>
        <mxCell id="WIyWlLk6GJQsqaUBKTNV-0" />
        <mxCell id="WIyWlLk6GJQsqaUBKTNV-1" parent="WIyWlLk6GJQsqaUBKTNV-0" />
        <mxCell id="WIyWlLk6GJQsqaUBKTNV-2" value="" style="rounded=0;html=1;jettySize=auto;orthogonalLoop=1;fontSize=11;endArrow=block;endFill=0;endSize=8;strokeWidth=1;shadow=0;labelBackgroundColor=none;edgeStyle=orthogonalEdgeStyle;" parent="WIyWlLk6GJQsqaUBKTNV-1" source="WIyWlLk6GJQsqaUBKTNV-3" target="WIyWlLk6GJQsqaUBKTNV-6" edge="1">
          <mxGeometry relative="1" as="geometry" />
        </mxCell>
        <mxCell id="WIyWlLk6GJQsqaUBKTNV-3" value="Lamp doesn&#39;t work" style="rounded=1;whiteSpace=wrap;html=1;fontSize=12;glass=0;strokeWidth=1;shadow=0;fillColor=#f8cecc;strokeColor=#b85450;" parent="WIyWlLk6GJQsqaUBKTNV-1" vertex="1">
          <mxGeometry x="160" y="80" width="120" height="40" as="geometry" />
        </mxCell>
        <mxCell id="WIyWlLk6GJQsqaUBKTNV-4" value="Yes" style="rounded=0;html=1;jettySize=auto;orthogonalLoop=1;fontSize=11;endArrow=block;endFill=0;endSize=8;strokeWidth=1;shadow=0;labelBackgroundColor=none;edgeStyle=orthogonalEdgeStyle;" parent="WIyWlLk6GJQsqaUBKTNV-1" source="WIyWlLk6GJQsqaUBKTNV-6" target="WIyWlLk6GJQsqaUBKTNV-10" edge="1">
          <mxGeometry y="20" relative="1" as="geometry">
            <mxPoint as="offset" />
          </mxGeometry>
        </mxCell>
        <mxCell id="WIyWlLk6GJQsqaUBKTNV-5" value="No" style="edgeStyle=orthogonalEdgeStyle;rounded=0;html=1;jettySize=auto;orthogonalLoop=1;fontSize=11;endArrow=block;endFill=0;endSize=8;strokeWidth=1;shadow=0;labelBackgroundColor=none;" parent="WIyWlLk6GJQsqaUBKTNV-1" source="WIyWlLk6GJQsqaUBKTNV-6" target="WIyWlLk6GJQsqaUBKTNV-7" edge="1">
          <mxGeometry y="10" relative="1" as="geometry">
            <mxPoint as="offset" />
          </mxGeometry>
        </mxCell>
        <mxCell id="WIyWlLk6GJQsqaUBKTNV-6" value="Lamp&lt;br&gt;plugged in?" style="rhombus;whiteSpace=wrap;html=1;shadow=0;fontFamily=Helvetica;fontSize=12;align=center;strokeWidth=1;spacing=6;spacingTop=-4;fillColor=#d5e8d4;strokeColor=#82b366;" parent="WIyWlLk6GJQsqaUBKTNV-1" vertex="1">
          <mxGeometry x="170" y="170" width="100" height="80" as="geometry" />
        </mxCell>
        <mxCell id="2czFrJoMAIWLUlT9sack-3" value="" style="edgeStyle=orthogonalEdgeStyle;rounded=0;orthogonalLoop=1;jettySize=auto;html=1;entryX=0.5;entryY=0;entryDx=0;entryDy=0;" parent="WIyWlLk6GJQsqaUBKTNV-1" source="WIyWlLk6GJQsqaUBKTNV-7" target="2czFrJoMAIWLUlT9sack-2" edge="1">
          <mxGeometry relative="1" as="geometry" />
        </mxCell>
        <mxCell id="WIyWlLk6GJQsqaUBKTNV-7" value="Plug in lamp" style="rounded=1;whiteSpace=wrap;html=1;fontSize=12;glass=0;strokeWidth=1;shadow=0;fillColor=#fff2cc;strokeColor=#d6b656;" parent="WIyWlLk6GJQsqaUBKTNV-1" vertex="1">
          <mxGeometry x="320" y="190" width="120" height="40" as="geometry" />
        </mxCell>
        <mxCell id="WIyWlLk6GJQsqaUBKTNV-8" value="No" style="rounded=0;html=1;jettySize=auto;orthogonalLoop=1;fontSize=11;endArrow=block;endFill=0;endSize=8;strokeWidth=1;shadow=0;labelBackgroundColor=none;edgeStyle=orthogonalEdgeStyle;" parent="WIyWlLk6GJQsqaUBKTNV-1" source="WIyWlLk6GJQsqaUBKTNV-10" target="WIyWlLk6GJQsqaUBKTNV-11" edge="1">
          <mxGeometry x="0.3333" y="20" relative="1" as="geometry">
            <mxPoint as="offset" />
          </mxGeometry>
        </mxCell>
        <mxCell id="WIyWlLk6GJQsqaUBKTNV-9" value="Yes" style="edgeStyle=orthogonalEdgeStyle;rounded=0;html=1;jettySize=auto;orthogonalLoop=1;fontSize=11;endArrow=block;endFill=0;endSize=8;strokeWidth=1;shadow=0;labelBackgroundColor=none;" parent="WIyWlLk6GJQsqaUBKTNV-1" source="WIyWlLk6GJQsqaUBKTNV-10" target="WIyWlLk6GJQsqaUBKTNV-12" edge="1">
          <mxGeometry y="10" relative="1" as="geometry">
            <mxPoint as="offset" />
          </mxGeometry>
        </mxCell>
        <mxCell id="WIyWlLk6GJQsqaUBKTNV-10" value="Bulb&lt;br&gt;burned out?" style="rhombus;whiteSpace=wrap;html=1;shadow=0;fontFamily=Helvetica;fontSize=12;align=center;strokeWidth=1;spacing=6;spacingTop=-4;fillColor=#d5e8d4;strokeColor=#82b366;" parent="WIyWlLk6GJQsqaUBKTNV-1" vertex="1">
          <mxGeometry x="170" y="290" width="100" height="80" as="geometry" />
        </mxCell>
        <mxCell id="2czFrJoMAIWLUlT9sack-32" style="edgeStyle=orthogonalEdgeStyle;rounded=0;orthogonalLoop=1;jettySize=auto;html=1;" parent="WIyWlLk6GJQsqaUBKTNV-1" source="WIyWlLk6GJQsqaUBKTNV-11" target="2czFrJoMAIWLUlT9sack-8" edge="1">
          <mxGeometry relative="1" as="geometry" />
        </mxCell>
        <mxCell id="WIyWlLk6GJQsqaUBKTNV-11" value="Repair Lamp" style="rounded=1;whiteSpace=wrap;html=1;fontSize=12;glass=0;strokeWidth=1;shadow=0;fillColor=#fff2cc;strokeColor=#d6b656;" parent="WIyWlLk6GJQsqaUBKTNV-1" vertex="1">
          <mxGeometry x="160" y="480" width="120" height="40" as="geometry" />
        </mxCell>
        <mxCell id="2czFrJoMAIWLUlT9sack-9" value="" style="edgeStyle=orthogonalEdgeStyle;rounded=0;orthogonalLoop=1;jettySize=auto;html=1;" parent="WIyWlLk6GJQsqaUBKTNV-1" source="WIyWlLk6GJQsqaUBKTNV-12" target="2czFrJoMAIWLUlT9sack-8" edge="1">
          <mxGeometry relative="1" as="geometry" />
        </mxCell>
        <mxCell id="WIyWlLk6GJQsqaUBKTNV-12" value="Replace Bulb" style="rounded=1;whiteSpace=wrap;html=1;fontSize=12;glass=0;strokeWidth=1;shadow=0;fillColor=#fff2cc;strokeColor=#d6b656;" parent="WIyWlLk6GJQsqaUBKTNV-1" vertex="1">
          <mxGeometry x="320" y="310" width="120" height="40" as="geometry" />
        </mxCell>
        <mxCell id="2czFrJoMAIWLUlT9sack-5" value="si&lt;br&gt;" style="edgeStyle=orthogonalEdgeStyle;rounded=0;orthogonalLoop=1;jettySize=auto;html=1;" parent="WIyWlLk6GJQsqaUBKTNV-1" source="2czFrJoMAIWLUlT9sack-2" target="2czFrJoMAIWLUlT9sack-4" edge="1">
          <mxGeometry relative="1" as="geometry" />
        </mxCell>
        <mxCell id="2czFrJoMAIWLUlT9sack-6" value="No" style="edgeStyle=orthogonalEdgeStyle;rounded=0;orthogonalLoop=1;jettySize=auto;html=1;entryX=0.5;entryY=0;entryDx=0;entryDy=0;" parent="WIyWlLk6GJQsqaUBKTNV-1" source="2czFrJoMAIWLUlT9sack-2" target="WIyWlLk6GJQsqaUBKTNV-10" edge="1">
          <mxGeometry relative="1" as="geometry" />
        </mxCell>
        <mxCell id="2czFrJoMAIWLUlT9sack-2" value="Enciende?" style="rhombus;whiteSpace=wrap;html=1;fillColor=#d5e8d4;strokeColor=#82b366;rounded=1;glass=0;strokeWidth=1;shadow=0;" parent="WIyWlLk6GJQsqaUBKTNV-1" vertex="1">
          <mxGeometry x="510" y="230" width="80" height="80" as="geometry" />
        </mxCell>
        <mxCell id="2czFrJoMAIWLUlT9sack-4" value="SOLUCIONADO" style="whiteSpace=wrap;html=1;fillColor=#dae8fc;strokeColor=#6c8ebf;rounded=1;glass=0;strokeWidth=1;shadow=0;" parent="WIyWlLk6GJQsqaUBKTNV-1" vertex="1">
          <mxGeometry x="490" y="350" width="120" height="40" as="geometry" />
        </mxCell>
        <mxCell id="2czFrJoMAIWLUlT9sack-10" value="SI" style="edgeStyle=orthogonalEdgeStyle;rounded=0;orthogonalLoop=1;jettySize=auto;html=1;entryX=0.5;entryY=1;entryDx=0;entryDy=0;" parent="WIyWlLk6GJQsqaUBKTNV-1" source="2czFrJoMAIWLUlT9sack-8" target="2czFrJoMAIWLUlT9sack-4" edge="1">
          <mxGeometry relative="1" as="geometry" />
        </mxCell>
        <mxCell id="2czFrJoMAIWLUlT9sack-11" value="No" style="edgeStyle=orthogonalEdgeStyle;rounded=0;orthogonalLoop=1;jettySize=auto;html=1;entryX=0.5;entryY=0;entryDx=0;entryDy=0;" parent="WIyWlLk6GJQsqaUBKTNV-1" source="2czFrJoMAIWLUlT9sack-8" target="WIyWlLk6GJQsqaUBKTNV-11" edge="1">
          <mxGeometry relative="1" as="geometry" />
        </mxCell>
        <mxCell id="2czFrJoMAIWLUlT9sack-8" value="Enciende?" style="rhombus;whiteSpace=wrap;html=1;rounded=1;glass=0;strokeWidth=1;shadow=0;fillColor=#d5e8d4;strokeColor=#82b366;" parent="WIyWlLk6GJQsqaUBKTNV-1" vertex="1">
          <mxGeometry x="340" y="380" width="80" height="80" as="geometry" />
        </mxCell>
        <mxCell id="2czFrJoMAIWLUlT9sack-12" value="" style="rounded=0;html=1;jettySize=auto;orthogonalLoop=1;fontSize=11;endArrow=block;endFill=0;endSize=8;strokeWidth=1;shadow=0;labelBackgroundColor=none;edgeStyle=orthogonalEdgeStyle;" parent="WIyWlLk6GJQsqaUBKTNV-1" source="2czFrJoMAIWLUlT9sack-13" target="2czFrJoMAIWLUlT9sack-16" edge="1">
          <mxGeometry relative="1" as="geometry" />
        </mxCell>
        <mxCell id="2czFrJoMAIWLUlT9sack-13" value="Lamp doesn&#39;t work" style="rounded=1;whiteSpace=wrap;html=1;fontSize=12;glass=0;strokeWidth=1;shadow=0;fillColor=#f8cecc;strokeColor=#b85450;" parent="WIyWlLk6GJQsqaUBKTNV-1" vertex="1">
          <mxGeometry x="160" y="590" width="120" height="40" as="geometry" />
        </mxCell>
        <mxCell id="2czFrJoMAIWLUlT9sack-14" value="Yes" style="rounded=0;html=1;jettySize=auto;orthogonalLoop=1;fontSize=11;endArrow=block;endFill=0;endSize=8;strokeWidth=1;shadow=0;labelBackgroundColor=none;edgeStyle=orthogonalEdgeStyle;" parent="WIyWlLk6GJQsqaUBKTNV-1" source="2czFrJoMAIWLUlT9sack-16" target="2czFrJoMAIWLUlT9sack-21" edge="1">
          <mxGeometry y="20" relative="1" as="geometry">
            <mxPoint as="offset" />
          </mxGeometry>
        </mxCell>
        <mxCell id="2czFrJoMAIWLUlT9sack-15" value="No" style="edgeStyle=orthogonalEdgeStyle;rounded=0;html=1;jettySize=auto;orthogonalLoop=1;fontSize=11;endArrow=block;endFill=0;endSize=8;strokeWidth=1;shadow=0;labelBackgroundColor=none;" parent="WIyWlLk6GJQsqaUBKTNV-1" source="2czFrJoMAIWLUlT9sack-16" target="2czFrJoMAIWLUlT9sack-18" edge="1">
          <mxGeometry y="10" relative="1" as="geometry">
            <mxPoint as="offset" />
          </mxGeometry>
        </mxCell>
        <mxCell id="2czFrJoMAIWLUlT9sack-16" value="Lamp&lt;br&gt;plugged in?" style="rhombus;whiteSpace=wrap;html=1;shadow=0;fontFamily=Helvetica;fontSize=12;align=center;strokeWidth=1;spacing=6;spacingTop=-4;fillColor=#d5e8d4;strokeColor=#82b366;" parent="WIyWlLk6GJQsqaUBKTNV-1" vertex="1">
          <mxGeometry x="170" y="680" width="100" height="80" as="geometry" />
        </mxCell>
        <mxCell id="2czFrJoMAIWLUlT9sack-18" value="Plug in lamp" style="rounded=1;whiteSpace=wrap;html=1;fontSize=12;glass=0;strokeWidth=1;shadow=0;fillColor=#fff2cc;strokeColor=#d6b656;" parent="WIyWlLk6GJQsqaUBKTNV-1" vertex="1">
          <mxGeometry x="320" y="700" width="120" height="40" as="geometry" />
        </mxCell>
        <mxCell id="2czFrJoMAIWLUlT9sack-19" value="No" style="rounded=0;html=1;jettySize=auto;orthogonalLoop=1;fontSize=11;endArrow=block;endFill=0;endSize=8;strokeWidth=1;shadow=0;labelBackgroundColor=none;edgeStyle=orthogonalEdgeStyle;" parent="WIyWlLk6GJQsqaUBKTNV-1" source="2czFrJoMAIWLUlT9sack-21" target="2czFrJoMAIWLUlT9sack-22" edge="1">
          <mxGeometry x="0.3333" y="20" relative="1" as="geometry">
            <mxPoint as="offset" />
          </mxGeometry>
        </mxCell>
        <mxCell id="2czFrJoMAIWLUlT9sack-20" value="Yes" style="edgeStyle=orthogonalEdgeStyle;rounded=0;html=1;jettySize=auto;orthogonalLoop=1;fontSize=11;endArrow=block;endFill=0;endSize=8;strokeWidth=1;shadow=0;labelBackgroundColor=none;" parent="WIyWlLk6GJQsqaUBKTNV-1" source="2czFrJoMAIWLUlT9sack-21" target="2czFrJoMAIWLUlT9sack-24" edge="1">
          <mxGeometry y="10" relative="1" as="geometry">
            <mxPoint as="offset" />
          </mxGeometry>
        </mxCell>
        <mxCell id="2czFrJoMAIWLUlT9sack-21" value="Bulb&lt;br&gt;burned out?" style="rhombus;whiteSpace=wrap;html=1;shadow=0;fontFamily=Helvetica;fontSize=12;align=center;strokeWidth=1;spacing=6;spacingTop=-4;fillColor=#d5e8d4;strokeColor=#82b366;" parent="WIyWlLk6GJQsqaUBKTNV-1" vertex="1">
          <mxGeometry x="170" y="800" width="100" height="80" as="geometry" />
        </mxCell>
        <mxCell id="2czFrJoMAIWLUlT9sack-22" value="Repair Lamp" style="rounded=1;whiteSpace=wrap;html=1;fontSize=12;glass=0;strokeWidth=1;shadow=0;fillColor=#dae8fc;strokeColor=#6c8ebf;" parent="WIyWlLk6GJQsqaUBKTNV-1" vertex="1">
          <mxGeometry x="160" y="940" width="120" height="40" as="geometry" />
        </mxCell>
        <mxCell id="2czFrJoMAIWLUlT9sack-24" value="Replace Bulb" style="rounded=1;whiteSpace=wrap;html=1;fontSize=12;glass=0;strokeWidth=1;shadow=0;fillColor=#fff2cc;strokeColor=#d6b656;" parent="WIyWlLk6GJQsqaUBKTNV-1" vertex="1">
          <mxGeometry x="320" y="820" width="120" height="40" as="geometry" />
        </mxCell>
        <mxCell id="2czFrJoMAIWLUlT9sack-33" value="TRUE" style="text;html=1;strokeColor=none;fillColor=none;align=center;verticalAlign=middle;whiteSpace=wrap;rounded=0;" parent="WIyWlLk6GJQsqaUBKTNV-1" vertex="1">
          <mxGeometry x="140" y="-240" width="60" height="30" as="geometry" />
        </mxCell>
        <mxCell id="2czFrJoMAIWLUlT9sack-34" value="FALSE" style="text;html=1;strokeColor=none;fillColor=none;align=center;verticalAlign=middle;whiteSpace=wrap;rounded=0;" parent="WIyWlLk6GJQsqaUBKTNV-1" vertex="1">
          <mxGeometry x="200" y="-240" width="60" height="30" as="geometry" />
        </mxCell>
        <mxCell id="2czFrJoMAIWLUlT9sack-36" style="edgeStyle=orthogonalEdgeStyle;rounded=0;orthogonalLoop=1;jettySize=auto;html=1;entryX=0.5;entryY=0;entryDx=0;entryDy=0;" parent="WIyWlLk6GJQsqaUBKTNV-1" source="2czFrJoMAIWLUlT9sack-35" target="2czFrJoMAIWLUlT9sack-33" edge="1">
          <mxGeometry relative="1" as="geometry" />
        </mxCell>
        <mxCell id="2czFrJoMAIWLUlT9sack-37" style="edgeStyle=orthogonalEdgeStyle;rounded=0;orthogonalLoop=1;jettySize=auto;html=1;entryX=0.5;entryY=0;entryDx=0;entryDy=0;" parent="WIyWlLk6GJQsqaUBKTNV-1" source="2czFrJoMAIWLUlT9sack-35" target="2czFrJoMAIWLUlT9sack-34" edge="1">
          <mxGeometry relative="1" as="geometry" />
        </mxCell>
        <mxCell id="2czFrJoMAIWLUlT9sack-35" value="¿Está lloviendo?" style="text;html=1;strokeColor=none;fillColor=none;align=center;verticalAlign=middle;whiteSpace=wrap;rounded=0;" parent="WIyWlLk6GJQsqaUBKTNV-1" vertex="1">
          <mxGeometry x="140" y="-310" width="120" height="30" as="geometry" />
        </mxCell>
        <mxCell id="2czFrJoMAIWLUlT9sack-38" value="var primerNumero = 10" style="text;html=1;strokeColor=none;fillColor=none;align=center;verticalAlign=middle;whiteSpace=wrap;rounded=0;" parent="WIyWlLk6GJQsqaUBKTNV-1" vertex="1">
          <mxGeometry x="270" y="-320" width="150" height="30" as="geometry" />
        </mxCell>
        <mxCell id="2czFrJoMAIWLUlT9sack-39" value="TRUE" style="text;html=1;strokeColor=none;fillColor=none;align=center;verticalAlign=middle;whiteSpace=wrap;rounded=0;" parent="WIyWlLk6GJQsqaUBKTNV-1" vertex="1">
          <mxGeometry x="285" y="-205" width="60" height="30" as="geometry" />
        </mxCell>
        <mxCell id="2czFrJoMAIWLUlT9sack-40" value="FALSE" style="text;html=1;strokeColor=none;fillColor=none;align=center;verticalAlign=middle;whiteSpace=wrap;rounded=0;" parent="WIyWlLk6GJQsqaUBKTNV-1" vertex="1">
          <mxGeometry x="345" y="-205" width="60" height="30" as="geometry" />
        </mxCell>
        <mxCell id="2czFrJoMAIWLUlT9sack-42" style="edgeStyle=orthogonalEdgeStyle;rounded=0;orthogonalLoop=1;jettySize=auto;html=1;entryX=0.5;entryY=0;entryDx=0;entryDy=0;" parent="WIyWlLk6GJQsqaUBKTNV-1" source="2czFrJoMAIWLUlT9sack-41" target="2czFrJoMAIWLUlT9sack-40" edge="1">
          <mxGeometry relative="1" as="geometry" />
        </mxCell>
        <mxCell id="2czFrJoMAIWLUlT9sack-41" value="¿primerNumero es mayor que 10?" style="text;html=1;strokeColor=none;fillColor=none;align=center;verticalAlign=middle;whiteSpace=wrap;rounded=0;" parent="WIyWlLk6GJQsqaUBKTNV-1" vertex="1">
          <mxGeometry x="285" y="-275" width="120" height="30" as="geometry" />
        </mxCell>
        <mxCell id="2czFrJoMAIWLUlT9sack-47" value="SI" style="edgeStyle=orthogonalEdgeStyle;rounded=0;orthogonalLoop=1;jettySize=auto;html=1;" parent="WIyWlLk6GJQsqaUBKTNV-1" source="2czFrJoMAIWLUlT9sack-43" target="2czFrJoMAIWLUlT9sack-46" edge="1">
          <mxGeometry relative="1" as="geometry" />
        </mxCell>
        <mxCell id="2czFrJoMAIWLUlT9sack-49" value="NO" style="edgeStyle=orthogonalEdgeStyle;rounded=0;orthogonalLoop=1;jettySize=auto;html=1;" parent="WIyWlLk6GJQsqaUBKTNV-1" source="2czFrJoMAIWLUlT9sack-43" target="2czFrJoMAIWLUlT9sack-48" edge="1">
          <mxGeometry relative="1" as="geometry" />
        </mxCell>
        <mxCell id="2czFrJoMAIWLUlT9sack-43" value="¿El número de vuelta &lt;br&gt;es la vuelta 10?" style="rhombus;whiteSpace=wrap;html=1;fillColor=#fff2cc;strokeColor=#d6b656;" parent="WIyWlLk6GJQsqaUBKTNV-1" vertex="1">
          <mxGeometry x="170" y="-610" width="180" height="106" as="geometry" />
        </mxCell>
        <mxCell id="2czFrJoMAIWLUlT9sack-45" style="edgeStyle=orthogonalEdgeStyle;rounded=0;orthogonalLoop=1;jettySize=auto;html=1;entryX=0.5;entryY=0;entryDx=0;entryDy=0;" parent="WIyWlLk6GJQsqaUBKTNV-1" source="2czFrJoMAIWLUlT9sack-44" target="2czFrJoMAIWLUlT9sack-43" edge="1">
          <mxGeometry relative="1" as="geometry" />
        </mxCell>
        <mxCell id="2czFrJoMAIWLUlT9sack-44" value="MI HIJA SUBE AL CARROUSEL" style="rounded=1;whiteSpace=wrap;html=1;fillColor=#f8cecc;strokeColor=#b85450;" parent="WIyWlLk6GJQsqaUBKTNV-1" vertex="1">
          <mxGeometry x="200" y="-700" width="120" height="60" as="geometry" />
        </mxCell>
        <mxCell id="2czFrJoMAIWLUlT9sack-46" value="Bajar a mi Hija" style="rounded=1;whiteSpace=wrap;html=1;fillColor=#dae8fc;strokeColor=#6c8ebf;" parent="WIyWlLk6GJQsqaUBKTNV-1" vertex="1">
          <mxGeometry x="390" y="-587" width="120" height="60" as="geometry" />
        </mxCell>
        <mxCell id="2czFrJoMAIWLUlT9sack-50" style="edgeStyle=orthogonalEdgeStyle;rounded=0;orthogonalLoop=1;jettySize=auto;html=1;entryX=0.5;entryY=0;entryDx=0;entryDy=0;" parent="WIyWlLk6GJQsqaUBKTNV-1" source="2czFrJoMAIWLUlT9sack-48" target="2czFrJoMAIWLUlT9sack-43" edge="1">
          <mxGeometry relative="1" as="geometry">
            <Array as="points">
              <mxPoint x="260" y="-420" />
              <mxPoint x="130" y="-420" />
              <mxPoint x="130" y="-630" />
              <mxPoint x="260" y="-630" />
            </Array>
          </mxGeometry>
        </mxCell>
        <mxCell id="2czFrJoMAIWLUlT9sack-48" value="Esperar un rato y volver a preguntar" style="rounded=1;whiteSpace=wrap;html=1;fillColor=#fff2cc;strokeColor=#d6b656;" parent="WIyWlLk6GJQsqaUBKTNV-1" vertex="1">
          <mxGeometry x="200" y="-470" width="120" height="40" as="geometry" />
        </mxCell>
        <mxCell id="2czFrJoMAIWLUlT9sack-52" value="vueltas &amp;gt;= 10" style="text;html=1;strokeColor=none;fillColor=none;align=center;verticalAlign=middle;whiteSpace=wrap;rounded=0;" parent="WIyWlLk6GJQsqaUBKTNV-1" vertex="1">
          <mxGeometry x="400" y="-685" width="100" height="30" as="geometry" />
        </mxCell>
        <mxCell id="2czFrJoMAIWLUlT9sack-53" value="TRUE" style="text;html=1;strokeColor=#82b366;fillColor=#d5e8d4;align=center;verticalAlign=middle;whiteSpace=wrap;rounded=0;" parent="WIyWlLk6GJQsqaUBKTNV-1" vertex="1">
          <mxGeometry x="150" y="-960" width="60" height="30" as="geometry" />
        </mxCell>
        <mxCell id="2czFrJoMAIWLUlT9sack-54" value="FALSE" style="text;html=1;strokeColor=#b85450;fillColor=#f8cecc;align=center;verticalAlign=middle;whiteSpace=wrap;rounded=0;" parent="WIyWlLk6GJQsqaUBKTNV-1" vertex="1">
          <mxGeometry x="150" y="-930" width="60" height="30" as="geometry" />
        </mxCell>
        <mxCell id="2czFrJoMAIWLUlT9sack-55" value="1 Pregunta" style="text;html=1;strokeColor=none;fillColor=none;align=center;verticalAlign=middle;whiteSpace=wrap;rounded=0;" parent="WIyWlLk6GJQsqaUBKTNV-1" vertex="1">
          <mxGeometry x="-150" y="-1000" width="60" height="30" as="geometry" />
        </mxCell>
        <mxCell id="2czFrJoMAIWLUlT9sack-56" value="TRUE" style="text;html=1;strokeColor=none;fillColor=none;align=center;verticalAlign=middle;whiteSpace=wrap;rounded=0;" parent="WIyWlLk6GJQsqaUBKTNV-1" vertex="1">
          <mxGeometry x="-80" y="-960" width="60" height="30" as="geometry" />
        </mxCell>
        <mxCell id="2czFrJoMAIWLUlT9sack-57" value="FALSE" style="text;html=1;strokeColor=none;fillColor=none;align=center;verticalAlign=middle;whiteSpace=wrap;rounded=0;" parent="WIyWlLk6GJQsqaUBKTNV-1" vertex="1">
          <mxGeometry x="-80" y="-930" width="60" height="30" as="geometry" />
        </mxCell>
        <mxCell id="2czFrJoMAIWLUlT9sack-58" value="TRUE" style="text;html=1;strokeColor=none;fillColor=none;align=center;verticalAlign=middle;whiteSpace=wrap;rounded=0;" parent="WIyWlLk6GJQsqaUBKTNV-1" vertex="1">
          <mxGeometry x="-140" y="-960" width="60" height="30" as="geometry" />
        </mxCell>
        <mxCell id="2czFrJoMAIWLUlT9sack-59" value="FALSE" style="text;html=1;strokeColor=none;fillColor=none;align=center;verticalAlign=middle;whiteSpace=wrap;rounded=0;" parent="WIyWlLk6GJQsqaUBKTNV-1" vertex="1">
          <mxGeometry x="-140" y="-930" width="60" height="30" as="geometry" />
        </mxCell>
        <mxCell id="2czFrJoMAIWLUlT9sack-60" value="" style="endArrow=none;html=1;rounded=0;" parent="WIyWlLk6GJQsqaUBKTNV-1" edge="1">
          <mxGeometry width="50" height="50" relative="1" as="geometry">
            <mxPoint x="-80" y="-890" as="sourcePoint" />
            <mxPoint x="-80" y="-1000" as="targetPoint" />
          </mxGeometry>
        </mxCell>
        <mxCell id="2czFrJoMAIWLUlT9sack-61" value="" style="endArrow=none;html=1;rounded=0;" parent="WIyWlLk6GJQsqaUBKTNV-1" edge="1">
          <mxGeometry width="50" height="50" relative="1" as="geometry">
            <mxPoint x="-160" y="-960" as="sourcePoint" />
            <mxPoint x="50" y="-960" as="targetPoint" />
          </mxGeometry>
        </mxCell>
        <mxCell id="2czFrJoMAIWLUlT9sack-62" value="1er Pregunta" style="text;html=1;strokeColor=none;fillColor=none;align=center;verticalAlign=middle;whiteSpace=wrap;rounded=0;" parent="WIyWlLk6GJQsqaUBKTNV-1" vertex="1">
          <mxGeometry x="150" y="-1000" width="60" height="30" as="geometry" />
        </mxCell>
        <mxCell id="2czFrJoMAIWLUlT9sack-63" value="2da Pregunta" style="text;html=1;strokeColor=none;fillColor=none;align=center;verticalAlign=middle;whiteSpace=wrap;rounded=0;" parent="WIyWlLk6GJQsqaUBKTNV-1" vertex="1">
          <mxGeometry x="210" y="-1000" width="60" height="30" as="geometry" />
        </mxCell>
        <mxCell id="2czFrJoMAIWLUlT9sack-64" value="" style="endArrow=none;html=1;rounded=0;" parent="WIyWlLk6GJQsqaUBKTNV-1" edge="1">
          <mxGeometry width="50" height="50" relative="1" as="geometry">
            <mxPoint x="210" y="-830" as="sourcePoint" />
            <mxPoint x="210" y="-1000" as="targetPoint" />
          </mxGeometry>
        </mxCell>
        <mxCell id="2czFrJoMAIWLUlT9sack-65" value="" style="endArrow=none;html=1;rounded=0;" parent="WIyWlLk6GJQsqaUBKTNV-1" edge="1">
          <mxGeometry width="50" height="50" relative="1" as="geometry">
            <mxPoint x="130" y="-960" as="sourcePoint" />
            <mxPoint x="510" y="-960" as="targetPoint" />
          </mxGeometry>
        </mxCell>
        <mxCell id="2czFrJoMAIWLUlT9sack-66" value="" style="endArrow=none;html=1;rounded=0;" parent="WIyWlLk6GJQsqaUBKTNV-1" edge="1">
          <mxGeometry width="50" height="50" relative="1" as="geometry">
            <mxPoint x="280" y="-830" as="sourcePoint" />
            <mxPoint x="279.77" y="-1000" as="targetPoint" />
          </mxGeometry>
        </mxCell>
        <mxCell id="2czFrJoMAIWLUlT9sack-67" value="TRUE" style="text;html=1;strokeColor=#82b366;fillColor=#d5e8d4;align=center;verticalAlign=middle;whiteSpace=wrap;rounded=0;" parent="WIyWlLk6GJQsqaUBKTNV-1" vertex="1">
          <mxGeometry x="210" y="-960" width="60" height="30" as="geometry" />
        </mxCell>
        <mxCell id="2czFrJoMAIWLUlT9sack-68" value="FALSE" style="text;html=1;strokeColor=#b85450;fillColor=#f8cecc;align=center;verticalAlign=middle;whiteSpace=wrap;rounded=0;" parent="WIyWlLk6GJQsqaUBKTNV-1" vertex="1">
          <mxGeometry x="210" y="-930" width="60" height="30" as="geometry" />
        </mxCell>
        <mxCell id="2czFrJoMAIWLUlT9sack-69" value="TRUE" style="text;html=1;strokeColor=#82b366;fillColor=#d5e8d4;align=center;verticalAlign=middle;whiteSpace=wrap;rounded=0;" parent="WIyWlLk6GJQsqaUBKTNV-1" vertex="1">
          <mxGeometry x="150" y="-900" width="60" height="30" as="geometry" />
        </mxCell>
        <mxCell id="2czFrJoMAIWLUlT9sack-70" value="FALSE" style="text;html=1;strokeColor=#b85450;fillColor=#f8cecc;align=center;verticalAlign=middle;whiteSpace=wrap;rounded=0;" parent="WIyWlLk6GJQsqaUBKTNV-1" vertex="1">
          <mxGeometry x="150" y="-870" width="60" height="30" as="geometry" />
        </mxCell>
        <mxCell id="2czFrJoMAIWLUlT9sack-71" value="FALSE" style="text;html=1;strokeColor=#b85450;fillColor=#f8cecc;align=center;verticalAlign=middle;whiteSpace=wrap;rounded=0;" parent="WIyWlLk6GJQsqaUBKTNV-1" vertex="1">
          <mxGeometry x="210" y="-900" width="60" height="30" as="geometry" />
        </mxCell>
        <mxCell id="2czFrJoMAIWLUlT9sack-72" value="TRUE" style="text;html=1;strokeColor=#82b366;fillColor=#d5e8d4;align=center;verticalAlign=middle;whiteSpace=wrap;rounded=0;" parent="WIyWlLk6GJQsqaUBKTNV-1" vertex="1">
          <mxGeometry x="210" y="-870" width="60" height="30" as="geometry" />
        </mxCell>
        <mxCell id="2czFrJoMAIWLUlT9sack-73" value="AND" style="text;html=1;strokeColor=none;fillColor=none;align=center;verticalAlign=middle;whiteSpace=wrap;rounded=0;" parent="WIyWlLk6GJQsqaUBKTNV-1" vertex="1">
          <mxGeometry x="290" y="-1000" width="60" height="30" as="geometry" />
        </mxCell>
        <mxCell id="2czFrJoMAIWLUlT9sack-74" value="FALSE" style="text;html=1;strokeColor=#b85450;fillColor=#f8cecc;align=center;verticalAlign=middle;whiteSpace=wrap;rounded=0;" parent="WIyWlLk6GJQsqaUBKTNV-1" vertex="1">
          <mxGeometry x="290" y="-900" width="60" height="30" as="geometry" />
        </mxCell>
        <mxCell id="2czFrJoMAIWLUlT9sack-76" value="FALSE" style="text;html=1;strokeColor=#b85450;fillColor=#f8cecc;align=center;verticalAlign=middle;whiteSpace=wrap;rounded=0;" parent="WIyWlLk6GJQsqaUBKTNV-1" vertex="1">
          <mxGeometry x="290" y="-930" width="60" height="30" as="geometry" />
        </mxCell>
        <mxCell id="2czFrJoMAIWLUlT9sack-77" value="FALSE" style="text;html=1;strokeColor=#b85450;fillColor=#f8cecc;align=center;verticalAlign=middle;whiteSpace=wrap;rounded=0;" parent="WIyWlLk6GJQsqaUBKTNV-1" vertex="1">
          <mxGeometry x="290" y="-870" width="60" height="30" as="geometry" />
        </mxCell>
        <mxCell id="2czFrJoMAIWLUlT9sack-78" value="TRUE" style="text;html=1;strokeColor=#82b366;fillColor=#d5e8d4;align=center;verticalAlign=middle;whiteSpace=wrap;rounded=0;" parent="WIyWlLk6GJQsqaUBKTNV-1" vertex="1">
          <mxGeometry x="290" y="-960" width="60" height="30" as="geometry" />
        </mxCell>
        <mxCell id="2czFrJoMAIWLUlT9sack-79" value="OR" style="text;html=1;strokeColor=none;fillColor=none;align=center;verticalAlign=middle;whiteSpace=wrap;rounded=0;" parent="WIyWlLk6GJQsqaUBKTNV-1" vertex="1">
          <mxGeometry x="360" y="-1000" width="60" height="30" as="geometry" />
        </mxCell>
        <mxCell id="2czFrJoMAIWLUlT9sack-80" value="TRUE" style="text;html=1;strokeColor=#82b366;fillColor=#d5e8d4;align=center;verticalAlign=middle;whiteSpace=wrap;rounded=0;" parent="WIyWlLk6GJQsqaUBKTNV-1" vertex="1">
          <mxGeometry x="360" y="-960" width="60" height="30" as="geometry" />
        </mxCell>
        <mxCell id="2czFrJoMAIWLUlT9sack-81" value="TRUE" style="text;html=1;strokeColor=#82b366;fillColor=#d5e8d4;align=center;verticalAlign=middle;whiteSpace=wrap;rounded=0;" parent="WIyWlLk6GJQsqaUBKTNV-1" vertex="1">
          <mxGeometry x="360" y="-900" width="60" height="30" as="geometry" />
        </mxCell>
        <mxCell id="2czFrJoMAIWLUlT9sack-82" value="TRUE" style="text;html=1;strokeColor=#82b366;fillColor=#d5e8d4;align=center;verticalAlign=middle;whiteSpace=wrap;rounded=0;" parent="WIyWlLk6GJQsqaUBKTNV-1" vertex="1">
          <mxGeometry x="360" y="-870" width="60" height="30" as="geometry" />
        </mxCell>
        <mxCell id="2czFrJoMAIWLUlT9sack-83" value="FALSE" style="text;html=1;strokeColor=#b85450;fillColor=#f8cecc;align=center;verticalAlign=middle;whiteSpace=wrap;rounded=0;" parent="WIyWlLk6GJQsqaUBKTNV-1" vertex="1">
          <mxGeometry x="360" y="-930" width="60" height="30" as="geometry" />
        </mxCell>
        <mxCell id="JednWGKHNM71uMq3Q5Gv-0" value="TRUE" style="text;html=1;strokeColor=#82b366;fillColor=#d5e8d4;align=center;verticalAlign=middle;whiteSpace=wrap;rounded=0;" parent="WIyWlLk6GJQsqaUBKTNV-1" vertex="1">
          <mxGeometry x="870" y="-960" width="60" height="30" as="geometry" />
        </mxCell>
        <mxCell id="JednWGKHNM71uMq3Q5Gv-1" value="FALSE" style="text;html=1;strokeColor=#b85450;fillColor=#f8cecc;align=center;verticalAlign=middle;whiteSpace=wrap;rounded=0;" parent="WIyWlLk6GJQsqaUBKTNV-1" vertex="1">
          <mxGeometry x="870" y="-930" width="60" height="30" as="geometry" />
        </mxCell>
        <mxCell id="JednWGKHNM71uMq3Q5Gv-2" value="1er Pregunta" style="text;html=1;strokeColor=none;fillColor=none;align=center;verticalAlign=middle;whiteSpace=wrap;rounded=0;" parent="WIyWlLk6GJQsqaUBKTNV-1" vertex="1">
          <mxGeometry x="870" y="-1000" width="60" height="30" as="geometry" />
        </mxCell>
        <mxCell id="JednWGKHNM71uMq3Q5Gv-3" value="2da Pregunta" style="text;html=1;strokeColor=none;fillColor=none;align=center;verticalAlign=middle;whiteSpace=wrap;rounded=0;" parent="WIyWlLk6GJQsqaUBKTNV-1" vertex="1">
          <mxGeometry x="930" y="-1000" width="60" height="30" as="geometry" />
        </mxCell>
        <mxCell id="JednWGKHNM71uMq3Q5Gv-4" value="" style="endArrow=none;html=1;rounded=0;" parent="WIyWlLk6GJQsqaUBKTNV-1" edge="1">
          <mxGeometry width="50" height="50" relative="1" as="geometry">
            <mxPoint x="930" y="-830" as="sourcePoint" />
            <mxPoint x="930" y="-1000" as="targetPoint" />
          </mxGeometry>
        </mxCell>
        <mxCell id="JednWGKHNM71uMq3Q5Gv-5" value="" style="endArrow=none;html=1;rounded=0;" parent="WIyWlLk6GJQsqaUBKTNV-1" edge="1">
          <mxGeometry width="50" height="50" relative="1" as="geometry">
            <mxPoint x="510" y="-960" as="sourcePoint" />
            <mxPoint x="1880" y="-960" as="targetPoint" />
          </mxGeometry>
        </mxCell>
        <mxCell id="JednWGKHNM71uMq3Q5Gv-6" value="" style="endArrow=none;html=1;rounded=0;" parent="WIyWlLk6GJQsqaUBKTNV-1" edge="1">
          <mxGeometry width="50" height="50" relative="1" as="geometry">
            <mxPoint x="1060" y="-720" as="sourcePoint" />
            <mxPoint x="1060" y="-1000" as="targetPoint" />
          </mxGeometry>
        </mxCell>
        <mxCell id="JednWGKHNM71uMq3Q5Gv-7" value="TRUE" style="text;html=1;strokeColor=#82b366;fillColor=#d5e8d4;align=center;verticalAlign=middle;whiteSpace=wrap;rounded=0;" parent="WIyWlLk6GJQsqaUBKTNV-1" vertex="1">
          <mxGeometry x="930" y="-960" width="60" height="30" as="geometry" />
        </mxCell>
        <mxCell id="JednWGKHNM71uMq3Q5Gv-8" value="FALSE" style="text;html=1;strokeColor=#b85450;fillColor=#f8cecc;align=center;verticalAlign=middle;whiteSpace=wrap;rounded=0;" parent="WIyWlLk6GJQsqaUBKTNV-1" vertex="1">
          <mxGeometry x="930" y="-930" width="60" height="30" as="geometry" />
        </mxCell>
        <mxCell id="JednWGKHNM71uMq3Q5Gv-9" value="TRUE" style="text;html=1;strokeColor=#82b366;fillColor=#d5e8d4;align=center;verticalAlign=middle;whiteSpace=wrap;rounded=0;" parent="WIyWlLk6GJQsqaUBKTNV-1" vertex="1">
          <mxGeometry x="870" y="-900" width="60" height="30" as="geometry" />
        </mxCell>
        <mxCell id="JednWGKHNM71uMq3Q5Gv-10" value="FALSE" style="text;html=1;strokeColor=#b85450;fillColor=#f8cecc;align=center;verticalAlign=middle;whiteSpace=wrap;rounded=0;" parent="WIyWlLk6GJQsqaUBKTNV-1" vertex="1">
          <mxGeometry x="870" y="-870" width="60" height="30" as="geometry" />
        </mxCell>
        <mxCell id="JednWGKHNM71uMq3Q5Gv-11" value="FALSE" style="text;html=1;strokeColor=#b85450;fillColor=#f8cecc;align=center;verticalAlign=middle;whiteSpace=wrap;rounded=0;" parent="WIyWlLk6GJQsqaUBKTNV-1" vertex="1">
          <mxGeometry x="930" y="-900" width="60" height="30" as="geometry" />
        </mxCell>
        <mxCell id="JednWGKHNM71uMq3Q5Gv-12" value="TRUE" style="text;html=1;strokeColor=#82b366;fillColor=#d5e8d4;align=center;verticalAlign=middle;whiteSpace=wrap;rounded=0;" parent="WIyWlLk6GJQsqaUBKTNV-1" vertex="1">
          <mxGeometry x="930" y="-870" width="60" height="30" as="geometry" />
        </mxCell>
        <mxCell id="JednWGKHNM71uMq3Q5Gv-13" value="AND" style="text;html=1;strokeColor=none;fillColor=none;align=center;verticalAlign=middle;whiteSpace=wrap;rounded=0;" parent="WIyWlLk6GJQsqaUBKTNV-1" vertex="1">
          <mxGeometry x="1070" y="-1000" width="60" height="30" as="geometry" />
        </mxCell>
        <mxCell id="JednWGKHNM71uMq3Q5Gv-14" value="FALSE" style="text;html=1;strokeColor=#b85450;fillColor=#f8cecc;align=center;verticalAlign=middle;whiteSpace=wrap;rounded=0;" parent="WIyWlLk6GJQsqaUBKTNV-1" vertex="1">
          <mxGeometry x="1070" y="-900" width="60" height="30" as="geometry" />
        </mxCell>
        <mxCell id="JednWGKHNM71uMq3Q5Gv-15" value="FALSE" style="text;html=1;strokeColor=#b85450;fillColor=#f8cecc;align=center;verticalAlign=middle;whiteSpace=wrap;rounded=0;" parent="WIyWlLk6GJQsqaUBKTNV-1" vertex="1">
          <mxGeometry x="1070" y="-930" width="60" height="30" as="geometry" />
        </mxCell>
        <mxCell id="JednWGKHNM71uMq3Q5Gv-16" value="FALSE" style="text;html=1;strokeColor=#b85450;fillColor=#f8cecc;align=center;verticalAlign=middle;whiteSpace=wrap;rounded=0;" parent="WIyWlLk6GJQsqaUBKTNV-1" vertex="1">
          <mxGeometry x="1070" y="-870" width="60" height="30" as="geometry" />
        </mxCell>
        <mxCell id="JednWGKHNM71uMq3Q5Gv-17" value="TRUE" style="text;html=1;strokeColor=#82b366;fillColor=#d5e8d4;align=center;verticalAlign=middle;whiteSpace=wrap;rounded=0;" parent="WIyWlLk6GJQsqaUBKTNV-1" vertex="1">
          <mxGeometry x="1070" y="-960" width="60" height="30" as="geometry" />
        </mxCell>
        <mxCell id="JednWGKHNM71uMq3Q5Gv-18" value="OR" style="text;html=1;strokeColor=none;fillColor=none;align=center;verticalAlign=middle;whiteSpace=wrap;rounded=0;" parent="WIyWlLk6GJQsqaUBKTNV-1" vertex="1">
          <mxGeometry x="1140" y="-1000" width="60" height="30" as="geometry" />
        </mxCell>
        <mxCell id="JednWGKHNM71uMq3Q5Gv-19" value="TRUE" style="text;html=1;strokeColor=#82b366;fillColor=#d5e8d4;align=center;verticalAlign=middle;whiteSpace=wrap;rounded=0;" parent="WIyWlLk6GJQsqaUBKTNV-1" vertex="1">
          <mxGeometry x="1140" y="-960" width="60" height="30" as="geometry" />
        </mxCell>
        <mxCell id="JednWGKHNM71uMq3Q5Gv-20" value="TRUE" style="text;html=1;strokeColor=#82b366;fillColor=#d5e8d4;align=center;verticalAlign=middle;whiteSpace=wrap;rounded=0;" parent="WIyWlLk6GJQsqaUBKTNV-1" vertex="1">
          <mxGeometry x="1140" y="-900" width="60" height="30" as="geometry" />
        </mxCell>
        <mxCell id="JednWGKHNM71uMq3Q5Gv-21" value="TRUE" style="text;html=1;strokeColor=#82b366;fillColor=#d5e8d4;align=center;verticalAlign=middle;whiteSpace=wrap;rounded=0;" parent="WIyWlLk6GJQsqaUBKTNV-1" vertex="1">
          <mxGeometry x="1140" y="-870" width="60" height="30" as="geometry" />
        </mxCell>
        <mxCell id="JednWGKHNM71uMq3Q5Gv-22" value="FALSE" style="text;html=1;strokeColor=#b85450;fillColor=#f8cecc;align=center;verticalAlign=middle;whiteSpace=wrap;rounded=0;" parent="WIyWlLk6GJQsqaUBKTNV-1" vertex="1">
          <mxGeometry x="1140" y="-930" width="60" height="30" as="geometry" />
        </mxCell>
        <mxCell id="JednWGKHNM71uMq3Q5Gv-23" value="3er Pregunta" style="text;html=1;strokeColor=none;fillColor=none;align=center;verticalAlign=middle;whiteSpace=wrap;rounded=0;" parent="WIyWlLk6GJQsqaUBKTNV-1" vertex="1">
          <mxGeometry x="990" y="-1000" width="60" height="30" as="geometry" />
        </mxCell>
        <mxCell id="JednWGKHNM71uMq3Q5Gv-24" value="" style="endArrow=none;html=1;rounded=0;" parent="WIyWlLk6GJQsqaUBKTNV-1" edge="1">
          <mxGeometry width="50" height="50" relative="1" as="geometry">
            <mxPoint x="990" y="-830" as="sourcePoint" />
            <mxPoint x="990" y="-1000" as="targetPoint" />
          </mxGeometry>
        </mxCell>
        <mxCell id="JednWGKHNM71uMq3Q5Gv-25" value="TRUE" style="text;html=1;strokeColor=#82b366;fillColor=#d5e8d4;align=center;verticalAlign=middle;whiteSpace=wrap;rounded=0;" parent="WIyWlLk6GJQsqaUBKTNV-1" vertex="1">
          <mxGeometry x="990" y="-960" width="60" height="30" as="geometry" />
        </mxCell>
        <mxCell id="JednWGKHNM71uMq3Q5Gv-26" value="FALSE" style="text;html=1;strokeColor=#b85450;fillColor=#f8cecc;align=center;verticalAlign=middle;whiteSpace=wrap;rounded=0;" parent="WIyWlLk6GJQsqaUBKTNV-1" vertex="1">
          <mxGeometry x="990" y="-930" width="60" height="30" as="geometry" />
        </mxCell>
        <mxCell id="JednWGKHNM71uMq3Q5Gv-27" value="FALSE" style="text;html=1;strokeColor=#b85450;fillColor=#f8cecc;align=center;verticalAlign=middle;whiteSpace=wrap;rounded=0;" parent="WIyWlLk6GJQsqaUBKTNV-1" vertex="1">
          <mxGeometry x="990" y="-900" width="60" height="30" as="geometry" />
        </mxCell>
        <mxCell id="JednWGKHNM71uMq3Q5Gv-28" value="TRUE" style="text;html=1;strokeColor=#82b366;fillColor=#d5e8d4;align=center;verticalAlign=middle;whiteSpace=wrap;rounded=0;" parent="WIyWlLk6GJQsqaUBKTNV-1" vertex="1">
          <mxGeometry x="990" y="-870" width="60" height="30" as="geometry" />
        </mxCell>
        <mxCell id="JednWGKHNM71uMq3Q5Gv-29" value="TRUE" style="text;html=1;strokeColor=#82b366;fillColor=#d5e8d4;align=center;verticalAlign=middle;whiteSpace=wrap;rounded=0;" parent="WIyWlLk6GJQsqaUBKTNV-1" vertex="1">
          <mxGeometry x="870" y="-840" width="60" height="30" as="geometry" />
        </mxCell>
        <mxCell id="JednWGKHNM71uMq3Q5Gv-30" value="FALSE" style="text;html=1;strokeColor=#b85450;fillColor=#f8cecc;align=center;verticalAlign=middle;whiteSpace=wrap;rounded=0;" parent="WIyWlLk6GJQsqaUBKTNV-1" vertex="1">
          <mxGeometry x="870" y="-810" width="60" height="30" as="geometry" />
        </mxCell>
        <mxCell id="JednWGKHNM71uMq3Q5Gv-31" value="TRUE" style="text;html=1;strokeColor=#82b366;fillColor=#d5e8d4;align=center;verticalAlign=middle;whiteSpace=wrap;rounded=0;" parent="WIyWlLk6GJQsqaUBKTNV-1" vertex="1">
          <mxGeometry x="870" y="-780" width="60" height="30" as="geometry" />
        </mxCell>
        <mxCell id="JednWGKHNM71uMq3Q5Gv-32" value="FALSE" style="text;html=1;strokeColor=#b85450;fillColor=#f8cecc;align=center;verticalAlign=middle;whiteSpace=wrap;rounded=0;" parent="WIyWlLk6GJQsqaUBKTNV-1" vertex="1">
          <mxGeometry x="870" y="-750" width="60" height="30" as="geometry" />
        </mxCell>
        <mxCell id="JednWGKHNM71uMq3Q5Gv-33" value="TRUE" style="text;html=1;strokeColor=#82b366;fillColor=#d5e8d4;align=center;verticalAlign=middle;whiteSpace=wrap;rounded=0;" parent="WIyWlLk6GJQsqaUBKTNV-1" vertex="1">
          <mxGeometry x="930" y="-840" width="60" height="30" as="geometry" />
        </mxCell>
        <mxCell id="JednWGKHNM71uMq3Q5Gv-34" value="FALSE" style="text;html=1;strokeColor=#b85450;fillColor=#f8cecc;align=center;verticalAlign=middle;whiteSpace=wrap;rounded=0;" parent="WIyWlLk6GJQsqaUBKTNV-1" vertex="1">
          <mxGeometry x="930" y="-810" width="60" height="30" as="geometry" />
        </mxCell>
        <mxCell id="JednWGKHNM71uMq3Q5Gv-35" value="FALSE" style="text;html=1;strokeColor=#b85450;fillColor=#f8cecc;align=center;verticalAlign=middle;whiteSpace=wrap;rounded=0;" parent="WIyWlLk6GJQsqaUBKTNV-1" vertex="1">
          <mxGeometry x="930" y="-780" width="60" height="30" as="geometry" />
        </mxCell>
        <mxCell id="JednWGKHNM71uMq3Q5Gv-36" value="TRUE" style="text;html=1;strokeColor=#82b366;fillColor=#d5e8d4;align=center;verticalAlign=middle;whiteSpace=wrap;rounded=0;" parent="WIyWlLk6GJQsqaUBKTNV-1" vertex="1">
          <mxGeometry x="930" y="-750" width="60" height="30" as="geometry" />
        </mxCell>
        <mxCell id="JednWGKHNM71uMq3Q5Gv-37" value="TRUE" style="text;html=1;strokeColor=#82b366;fillColor=#d5e8d4;align=center;verticalAlign=middle;whiteSpace=wrap;rounded=0;" parent="WIyWlLk6GJQsqaUBKTNV-1" vertex="1">
          <mxGeometry x="990" y="-810" width="60" height="30" as="geometry" />
        </mxCell>
        <mxCell id="JednWGKHNM71uMq3Q5Gv-38" value="FALSE" style="text;html=1;strokeColor=#b85450;fillColor=#f8cecc;align=center;verticalAlign=middle;whiteSpace=wrap;rounded=0;" parent="WIyWlLk6GJQsqaUBKTNV-1" vertex="1">
          <mxGeometry x="990" y="-840" width="60" height="30" as="geometry" />
        </mxCell>
        <mxCell id="JednWGKHNM71uMq3Q5Gv-39" value="FALSE" style="text;html=1;strokeColor=#b85450;fillColor=#f8cecc;align=center;verticalAlign=middle;whiteSpace=wrap;rounded=0;" parent="WIyWlLk6GJQsqaUBKTNV-1" vertex="1">
          <mxGeometry x="990" y="-750" width="60" height="30" as="geometry" />
        </mxCell>
        <mxCell id="JednWGKHNM71uMq3Q5Gv-40" value="TRUE" style="text;html=1;strokeColor=#82b366;fillColor=#d5e8d4;align=center;verticalAlign=middle;whiteSpace=wrap;rounded=0;" parent="WIyWlLk6GJQsqaUBKTNV-1" vertex="1">
          <mxGeometry x="990" y="-780" width="60" height="30" as="geometry" />
        </mxCell>
        <mxCell id="JednWGKHNM71uMq3Q5Gv-41" value="FALSE" style="text;html=1;strokeColor=#b85450;fillColor=#f8cecc;align=center;verticalAlign=middle;whiteSpace=wrap;rounded=0;" parent="WIyWlLk6GJQsqaUBKTNV-1" vertex="1">
          <mxGeometry x="1070" y="-810" width="60" height="30" as="geometry" />
        </mxCell>
        <mxCell id="JednWGKHNM71uMq3Q5Gv-42" value="FALSE" style="text;html=1;strokeColor=#b85450;fillColor=#f8cecc;align=center;verticalAlign=middle;whiteSpace=wrap;rounded=0;" parent="WIyWlLk6GJQsqaUBKTNV-1" vertex="1">
          <mxGeometry x="1070" y="-840" width="60" height="30" as="geometry" />
        </mxCell>
        <mxCell id="JednWGKHNM71uMq3Q5Gv-43" value="FALSE" style="text;html=1;strokeColor=#b85450;fillColor=#f8cecc;align=center;verticalAlign=middle;whiteSpace=wrap;rounded=0;" parent="WIyWlLk6GJQsqaUBKTNV-1" vertex="1">
          <mxGeometry x="1070" y="-780" width="60" height="30" as="geometry" />
        </mxCell>
        <mxCell id="JednWGKHNM71uMq3Q5Gv-44" value="FALSE" style="text;html=1;strokeColor=#b85450;fillColor=#f8cecc;align=center;verticalAlign=middle;whiteSpace=wrap;rounded=0;" parent="WIyWlLk6GJQsqaUBKTNV-1" vertex="1">
          <mxGeometry x="1070" y="-750" width="60" height="30" as="geometry" />
        </mxCell>
        <mxCell id="JednWGKHNM71uMq3Q5Gv-45" value="TRUE" style="text;html=1;strokeColor=#82b366;fillColor=#d5e8d4;align=center;verticalAlign=middle;whiteSpace=wrap;rounded=0;" parent="WIyWlLk6GJQsqaUBKTNV-1" vertex="1">
          <mxGeometry x="1140" y="-840" width="60" height="30" as="geometry" />
        </mxCell>
        <mxCell id="JednWGKHNM71uMq3Q5Gv-46" value="TRUE" style="text;html=1;strokeColor=#82b366;fillColor=#d5e8d4;align=center;verticalAlign=middle;whiteSpace=wrap;rounded=0;" parent="WIyWlLk6GJQsqaUBKTNV-1" vertex="1">
          <mxGeometry x="1140" y="-810" width="60" height="30" as="geometry" />
        </mxCell>
        <mxCell id="JednWGKHNM71uMq3Q5Gv-47" value="TRUE" style="text;html=1;strokeColor=#82b366;fillColor=#d5e8d4;align=center;verticalAlign=middle;whiteSpace=wrap;rounded=0;" parent="WIyWlLk6GJQsqaUBKTNV-1" vertex="1">
          <mxGeometry x="1140" y="-780" width="60" height="30" as="geometry" />
        </mxCell>
        <mxCell id="JednWGKHNM71uMq3Q5Gv-48" value="TRUE" style="text;html=1;strokeColor=#82b366;fillColor=#d5e8d4;align=center;verticalAlign=middle;whiteSpace=wrap;rounded=0;" parent="WIyWlLk6GJQsqaUBKTNV-1" vertex="1">
          <mxGeometry x="1140" y="-750" width="60" height="30" as="geometry" />
        </mxCell>
        <mxCell id="JednWGKHNM71uMq3Q5Gv-49" value="IF ( 15 &amp;gt; 10 ) V&lt;br&gt;IF ( 15 &amp;lt; 10 ) F&lt;br&gt;IF ( 15 &amp;gt;= 10 ) V&lt;br&gt;IF ( 15 &amp;lt;= 10 ) F&lt;br&gt;IF ( 15 == 10 ) F&lt;br&gt;IF ( 15 &amp;lt;&amp;gt; 10 ) V&lt;br&gt;IF ( 15 &amp;gt;= 15 ) V" style="text;html=1;align=center;verticalAlign=middle;resizable=0;points=[];autosize=1;strokeColor=none;fillColor=none;" parent="WIyWlLk6GJQsqaUBKTNV-1" vertex="1">
          <mxGeometry x="325" y="-1295" width="110" height="110" as="geometry" />
        </mxCell>
        <mxCell id="JednWGKHNM71uMq3Q5Gv-51" value="IF ( (C1 OR C2) AND C3 )" style="text;html=1;align=center;verticalAlign=middle;resizable=0;points=[];autosize=1;strokeColor=#432D57;fillColor=#76608a;fontColor=#ffffff;fontSize=8;" parent="WIyWlLk6GJQsqaUBKTNV-1" vertex="1">
          <mxGeometry x="1540" y="-980" width="120" height="20" as="geometry" />
        </mxCell>
        <mxCell id="JednWGKHNM71uMq3Q5Gv-52" value="IF ( C1 OR C2 AND C3 )" style="text;html=1;align=center;verticalAlign=middle;resizable=0;points=[];autosize=1;strokeColor=#C73500;fillColor=#fa6800;fontColor=#000000;fontSize=7;" parent="WIyWlLk6GJQsqaUBKTNV-1" vertex="1">
          <mxGeometry x="1440" y="-980" width="100" height="20" as="geometry" />
        </mxCell>
        <mxCell id="JednWGKHNM71uMq3Q5Gv-53" value="IF ( C1 OR (C2 AND C3) )" style="text;html=1;align=center;verticalAlign=middle;resizable=0;points=[];autosize=1;strokeColor=#3A5431;fillColor=#6d8764;fontColor=#ffffff;fontSize=8;" parent="WIyWlLk6GJQsqaUBKTNV-1" vertex="1">
          <mxGeometry x="1660" y="-980" width="120" height="20" as="geometry" />
        </mxCell>
        <mxCell id="JednWGKHNM71uMq3Q5Gv-54" value="" style="endArrow=none;html=1;rounded=0;" parent="WIyWlLk6GJQsqaUBKTNV-1" edge="1">
          <mxGeometry width="50" height="50" relative="1" as="geometry">
            <mxPoint x="1540" y="-720" as="sourcePoint" />
            <mxPoint x="1540" y="-1000" as="targetPoint" />
          </mxGeometry>
        </mxCell>
        <mxCell id="JednWGKHNM71uMq3Q5Gv-55" value="" style="endArrow=none;html=1;rounded=0;" parent="WIyWlLk6GJQsqaUBKTNV-1" edge="1">
          <mxGeometry width="50" height="50" relative="1" as="geometry">
            <mxPoint x="1660" y="-720" as="sourcePoint" />
            <mxPoint x="1660" y="-1000" as="targetPoint" />
          </mxGeometry>
        </mxCell>
        <mxCell id="JednWGKHNM71uMq3Q5Gv-56" value="TRUE" style="text;html=1;strokeColor=#82b366;fillColor=#d5e8d4;align=center;verticalAlign=middle;whiteSpace=wrap;rounded=0;" parent="WIyWlLk6GJQsqaUBKTNV-1" vertex="1">
          <mxGeometry x="1460" y="-955" width="60" height="30" as="geometry" />
        </mxCell>
        <mxCell id="JednWGKHNM71uMq3Q5Gv-57" value="TRUE" style="text;html=1;strokeColor=#82b366;fillColor=#d5e8d4;align=center;verticalAlign=middle;whiteSpace=wrap;rounded=0;" parent="WIyWlLk6GJQsqaUBKTNV-1" vertex="1">
          <mxGeometry x="1690" y="-955" width="60" height="30" as="geometry" />
        </mxCell>
        <mxCell id="JednWGKHNM71uMq3Q5Gv-58" value="TRUE" style="text;html=1;strokeColor=#82b366;fillColor=#d5e8d4;align=center;verticalAlign=middle;whiteSpace=wrap;rounded=0;" parent="WIyWlLk6GJQsqaUBKTNV-1" vertex="1">
          <mxGeometry x="1570" y="-955" width="60" height="30" as="geometry" />
        </mxCell>
        <mxCell id="JednWGKHNM71uMq3Q5Gv-59" value="TRUE" style="text;html=1;strokeColor=#82b366;fillColor=#d5e8d4;align=center;verticalAlign=middle;whiteSpace=wrap;rounded=0;" parent="WIyWlLk6GJQsqaUBKTNV-1" vertex="1">
          <mxGeometry x="1240" y="-955" width="60" height="30" as="geometry" />
        </mxCell>
        <mxCell id="JednWGKHNM71uMq3Q5Gv-60" value="FALSE" style="text;html=1;strokeColor=#b85450;fillColor=#f8cecc;align=center;verticalAlign=middle;whiteSpace=wrap;rounded=0;" parent="WIyWlLk6GJQsqaUBKTNV-1" vertex="1">
          <mxGeometry x="1240" y="-925" width="60" height="30" as="geometry" />
        </mxCell>
        <mxCell id="JednWGKHNM71uMq3Q5Gv-61" value="1er Pregunta" style="text;html=1;strokeColor=none;fillColor=none;align=center;verticalAlign=middle;whiteSpace=wrap;rounded=0;" parent="WIyWlLk6GJQsqaUBKTNV-1" vertex="1">
          <mxGeometry x="1240" y="-995" width="60" height="30" as="geometry" />
        </mxCell>
        <mxCell id="JednWGKHNM71uMq3Q5Gv-62" value="2da Pregunta" style="text;html=1;strokeColor=none;fillColor=none;align=center;verticalAlign=middle;whiteSpace=wrap;rounded=0;" parent="WIyWlLk6GJQsqaUBKTNV-1" vertex="1">
          <mxGeometry x="1300" y="-995" width="60" height="30" as="geometry" />
        </mxCell>
        <mxCell id="JednWGKHNM71uMq3Q5Gv-63" value="" style="endArrow=none;html=1;rounded=0;" parent="WIyWlLk6GJQsqaUBKTNV-1" edge="1">
          <mxGeometry width="50" height="50" relative="1" as="geometry">
            <mxPoint x="1300" y="-825" as="sourcePoint" />
            <mxPoint x="1300" y="-995" as="targetPoint" />
          </mxGeometry>
        </mxCell>
        <mxCell id="JednWGKHNM71uMq3Q5Gv-64" value="" style="endArrow=none;html=1;rounded=0;" parent="WIyWlLk6GJQsqaUBKTNV-1" edge="1">
          <mxGeometry width="50" height="50" relative="1" as="geometry">
            <mxPoint x="1430" y="-715" as="sourcePoint" />
            <mxPoint x="1430" y="-995" as="targetPoint" />
          </mxGeometry>
        </mxCell>
        <mxCell id="JednWGKHNM71uMq3Q5Gv-65" value="TRUE" style="text;html=1;strokeColor=#82b366;fillColor=#d5e8d4;align=center;verticalAlign=middle;whiteSpace=wrap;rounded=0;" parent="WIyWlLk6GJQsqaUBKTNV-1" vertex="1">
          <mxGeometry x="1300" y="-955" width="60" height="30" as="geometry" />
        </mxCell>
        <mxCell id="JednWGKHNM71uMq3Q5Gv-66" value="FALSE" style="text;html=1;strokeColor=#b85450;fillColor=#f8cecc;align=center;verticalAlign=middle;whiteSpace=wrap;rounded=0;" parent="WIyWlLk6GJQsqaUBKTNV-1" vertex="1">
          <mxGeometry x="1300" y="-925" width="60" height="30" as="geometry" />
        </mxCell>
        <mxCell id="JednWGKHNM71uMq3Q5Gv-67" value="TRUE" style="text;html=1;strokeColor=#82b366;fillColor=#d5e8d4;align=center;verticalAlign=middle;whiteSpace=wrap;rounded=0;" parent="WIyWlLk6GJQsqaUBKTNV-1" vertex="1">
          <mxGeometry x="1240" y="-895" width="60" height="30" as="geometry" />
        </mxCell>
        <mxCell id="JednWGKHNM71uMq3Q5Gv-68" value="FALSE" style="text;html=1;strokeColor=#b85450;fillColor=#f8cecc;align=center;verticalAlign=middle;whiteSpace=wrap;rounded=0;" parent="WIyWlLk6GJQsqaUBKTNV-1" vertex="1">
          <mxGeometry x="1240" y="-865" width="60" height="30" as="geometry" />
        </mxCell>
        <mxCell id="JednWGKHNM71uMq3Q5Gv-69" value="FALSE" style="text;html=1;strokeColor=#b85450;fillColor=#f8cecc;align=center;verticalAlign=middle;whiteSpace=wrap;rounded=0;" parent="WIyWlLk6GJQsqaUBKTNV-1" vertex="1">
          <mxGeometry x="1300" y="-895" width="60" height="30" as="geometry" />
        </mxCell>
        <mxCell id="JednWGKHNM71uMq3Q5Gv-70" value="TRUE" style="text;html=1;strokeColor=#82b366;fillColor=#d5e8d4;align=center;verticalAlign=middle;whiteSpace=wrap;rounded=0;" parent="WIyWlLk6GJQsqaUBKTNV-1" vertex="1">
          <mxGeometry x="1300" y="-865" width="60" height="30" as="geometry" />
        </mxCell>
        <mxCell id="JednWGKHNM71uMq3Q5Gv-71" value="3er Pregunta" style="text;html=1;strokeColor=none;fillColor=none;align=center;verticalAlign=middle;whiteSpace=wrap;rounded=0;" parent="WIyWlLk6GJQsqaUBKTNV-1" vertex="1">
          <mxGeometry x="1360" y="-995" width="60" height="30" as="geometry" />
        </mxCell>
        <mxCell id="JednWGKHNM71uMq3Q5Gv-72" value="" style="endArrow=none;html=1;rounded=0;" parent="WIyWlLk6GJQsqaUBKTNV-1" edge="1">
          <mxGeometry width="50" height="50" relative="1" as="geometry">
            <mxPoint x="1360" y="-825" as="sourcePoint" />
            <mxPoint x="1360" y="-995" as="targetPoint" />
          </mxGeometry>
        </mxCell>
        <mxCell id="JednWGKHNM71uMq3Q5Gv-73" value="TRUE" style="text;html=1;strokeColor=#82b366;fillColor=#d5e8d4;align=center;verticalAlign=middle;whiteSpace=wrap;rounded=0;" parent="WIyWlLk6GJQsqaUBKTNV-1" vertex="1">
          <mxGeometry x="1360" y="-955" width="60" height="30" as="geometry" />
        </mxCell>
        <mxCell id="JednWGKHNM71uMq3Q5Gv-74" value="FALSE" style="text;html=1;strokeColor=#b85450;fillColor=#f8cecc;align=center;verticalAlign=middle;whiteSpace=wrap;rounded=0;" parent="WIyWlLk6GJQsqaUBKTNV-1" vertex="1">
          <mxGeometry x="1360" y="-925" width="60" height="30" as="geometry" />
        </mxCell>
        <mxCell id="JednWGKHNM71uMq3Q5Gv-75" value="FALSE" style="text;html=1;strokeColor=#b85450;fillColor=#f8cecc;align=center;verticalAlign=middle;whiteSpace=wrap;rounded=0;" parent="WIyWlLk6GJQsqaUBKTNV-1" vertex="1">
          <mxGeometry x="1360" y="-895" width="60" height="30" as="geometry" />
        </mxCell>
        <mxCell id="JednWGKHNM71uMq3Q5Gv-76" value="TRUE" style="text;html=1;strokeColor=#82b366;fillColor=#d5e8d4;align=center;verticalAlign=middle;whiteSpace=wrap;rounded=0;" parent="WIyWlLk6GJQsqaUBKTNV-1" vertex="1">
          <mxGeometry x="1360" y="-865" width="60" height="30" as="geometry" />
        </mxCell>
        <mxCell id="JednWGKHNM71uMq3Q5Gv-77" value="TRUE" style="text;html=1;strokeColor=#82b366;fillColor=#d5e8d4;align=center;verticalAlign=middle;whiteSpace=wrap;rounded=0;" parent="WIyWlLk6GJQsqaUBKTNV-1" vertex="1">
          <mxGeometry x="1240" y="-835" width="60" height="30" as="geometry" />
        </mxCell>
        <mxCell id="JednWGKHNM71uMq3Q5Gv-78" value="FALSE" style="text;html=1;strokeColor=#b85450;fillColor=#f8cecc;align=center;verticalAlign=middle;whiteSpace=wrap;rounded=0;" parent="WIyWlLk6GJQsqaUBKTNV-1" vertex="1">
          <mxGeometry x="1240" y="-805" width="60" height="30" as="geometry" />
        </mxCell>
        <mxCell id="JednWGKHNM71uMq3Q5Gv-79" value="TRUE" style="text;html=1;strokeColor=#82b366;fillColor=#d5e8d4;align=center;verticalAlign=middle;whiteSpace=wrap;rounded=0;" parent="WIyWlLk6GJQsqaUBKTNV-1" vertex="1">
          <mxGeometry x="1240" y="-775" width="60" height="30" as="geometry" />
        </mxCell>
        <mxCell id="JednWGKHNM71uMq3Q5Gv-80" value="FALSE" style="text;html=1;strokeColor=#b85450;fillColor=#f8cecc;align=center;verticalAlign=middle;whiteSpace=wrap;rounded=0;" parent="WIyWlLk6GJQsqaUBKTNV-1" vertex="1">
          <mxGeometry x="1240" y="-745" width="60" height="30" as="geometry" />
        </mxCell>
        <mxCell id="JednWGKHNM71uMq3Q5Gv-81" value="TRUE" style="text;html=1;strokeColor=#82b366;fillColor=#d5e8d4;align=center;verticalAlign=middle;whiteSpace=wrap;rounded=0;" parent="WIyWlLk6GJQsqaUBKTNV-1" vertex="1">
          <mxGeometry x="1300" y="-835" width="60" height="30" as="geometry" />
        </mxCell>
        <mxCell id="JednWGKHNM71uMq3Q5Gv-82" value="FALSE" style="text;html=1;strokeColor=#b85450;fillColor=#f8cecc;align=center;verticalAlign=middle;whiteSpace=wrap;rounded=0;" parent="WIyWlLk6GJQsqaUBKTNV-1" vertex="1">
          <mxGeometry x="1300" y="-805" width="60" height="30" as="geometry" />
        </mxCell>
        <mxCell id="JednWGKHNM71uMq3Q5Gv-83" value="FALSE" style="text;html=1;strokeColor=#b85450;fillColor=#f8cecc;align=center;verticalAlign=middle;whiteSpace=wrap;rounded=0;" parent="WIyWlLk6GJQsqaUBKTNV-1" vertex="1">
          <mxGeometry x="1300" y="-775" width="60" height="30" as="geometry" />
        </mxCell>
        <mxCell id="JednWGKHNM71uMq3Q5Gv-84" value="TRUE" style="text;html=1;strokeColor=#82b366;fillColor=#d5e8d4;align=center;verticalAlign=middle;whiteSpace=wrap;rounded=0;" parent="WIyWlLk6GJQsqaUBKTNV-1" vertex="1">
          <mxGeometry x="1300" y="-745" width="60" height="30" as="geometry" />
        </mxCell>
        <mxCell id="JednWGKHNM71uMq3Q5Gv-85" value="TRUE" style="text;html=1;strokeColor=#82b366;fillColor=#d5e8d4;align=center;verticalAlign=middle;whiteSpace=wrap;rounded=0;" parent="WIyWlLk6GJQsqaUBKTNV-1" vertex="1">
          <mxGeometry x="1360" y="-805" width="60" height="30" as="geometry" />
        </mxCell>
        <mxCell id="JednWGKHNM71uMq3Q5Gv-86" value="FALSE" style="text;html=1;strokeColor=#b85450;fillColor=#f8cecc;align=center;verticalAlign=middle;whiteSpace=wrap;rounded=0;" parent="WIyWlLk6GJQsqaUBKTNV-1" vertex="1">
          <mxGeometry x="1360" y="-835" width="60" height="30" as="geometry" />
        </mxCell>
        <mxCell id="JednWGKHNM71uMq3Q5Gv-87" value="FALSE" style="text;html=1;strokeColor=#b85450;fillColor=#f8cecc;align=center;verticalAlign=middle;whiteSpace=wrap;rounded=0;" parent="WIyWlLk6GJQsqaUBKTNV-1" vertex="1">
          <mxGeometry x="1360" y="-745" width="60" height="30" as="geometry" />
        </mxCell>
        <mxCell id="JednWGKHNM71uMq3Q5Gv-88" value="TRUE" style="text;html=1;strokeColor=#82b366;fillColor=#d5e8d4;align=center;verticalAlign=middle;whiteSpace=wrap;rounded=0;" parent="WIyWlLk6GJQsqaUBKTNV-1" vertex="1">
          <mxGeometry x="1360" y="-775" width="60" height="30" as="geometry" />
        </mxCell>
        <mxCell id="JednWGKHNM71uMq3Q5Gv-89" value="FALSE" style="text;html=1;strokeColor=#b85450;fillColor=#f8cecc;align=center;verticalAlign=middle;whiteSpace=wrap;rounded=0;" parent="WIyWlLk6GJQsqaUBKTNV-1" vertex="1">
          <mxGeometry x="1460" y="-925" width="60" height="30" as="geometry" />
        </mxCell>
        <mxCell id="JednWGKHNM71uMq3Q5Gv-90" value="FALSE" style="text;html=1;strokeColor=#b85450;fillColor=#f8cecc;align=center;verticalAlign=middle;whiteSpace=wrap;rounded=0;" parent="WIyWlLk6GJQsqaUBKTNV-1" vertex="1">
          <mxGeometry x="1570" y="-925" width="60" height="30" as="geometry" />
        </mxCell>
        <mxCell id="JednWGKHNM71uMq3Q5Gv-91" value="FALSE" style="text;html=1;strokeColor=#b85450;fillColor=#f8cecc;align=center;verticalAlign=middle;whiteSpace=wrap;rounded=0;" parent="WIyWlLk6GJQsqaUBKTNV-1" vertex="1">
          <mxGeometry x="1690" y="-925" width="60" height="30" as="geometry" />
        </mxCell>
        <mxCell id="JednWGKHNM71uMq3Q5Gv-92" value="TRUE" style="text;html=1;strokeColor=#82b366;fillColor=#d5e8d4;align=center;verticalAlign=middle;whiteSpace=wrap;rounded=0;" parent="WIyWlLk6GJQsqaUBKTNV-1" vertex="1">
          <mxGeometry x="1460" y="-895" width="60" height="30" as="geometry" />
        </mxCell>
        <mxCell id="JednWGKHNM71uMq3Q5Gv-93" value="FALSE" style="text;html=1;strokeColor=#b85450;fillColor=#f8cecc;align=center;verticalAlign=middle;whiteSpace=wrap;rounded=0;" parent="WIyWlLk6GJQsqaUBKTNV-1" vertex="1">
          <mxGeometry x="1570" y="-895" width="60" height="30" as="geometry" />
        </mxCell>
        <mxCell id="JednWGKHNM71uMq3Q5Gv-94" value="TRUE" style="text;html=1;strokeColor=#82b366;fillColor=#d5e8d4;align=center;verticalAlign=middle;whiteSpace=wrap;rounded=0;" parent="WIyWlLk6GJQsqaUBKTNV-1" vertex="1">
          <mxGeometry x="1690" y="-895" width="60" height="30" as="geometry" />
        </mxCell>
        <mxCell id="JednWGKHNM71uMq3Q5Gv-95" value="TRUE" style="text;html=1;strokeColor=#82b366;fillColor=#d5e8d4;align=center;verticalAlign=middle;whiteSpace=wrap;rounded=0;" parent="WIyWlLk6GJQsqaUBKTNV-1" vertex="1">
          <mxGeometry x="1460" y="-865" width="60" height="30" as="geometry" />
        </mxCell>
        <mxCell id="JednWGKHNM71uMq3Q5Gv-96" value="TRUE" style="text;html=1;strokeColor=#82b366;fillColor=#d5e8d4;align=center;verticalAlign=middle;whiteSpace=wrap;rounded=0;" parent="WIyWlLk6GJQsqaUBKTNV-1" vertex="1">
          <mxGeometry x="1570" y="-865" width="60" height="30" as="geometry" />
        </mxCell>
        <mxCell id="JednWGKHNM71uMq3Q5Gv-97" value="TRUE" style="text;html=1;strokeColor=#82b366;fillColor=#d5e8d4;align=center;verticalAlign=middle;whiteSpace=wrap;rounded=0;" parent="WIyWlLk6GJQsqaUBKTNV-1" vertex="1">
          <mxGeometry x="1690" y="-865" width="60" height="30" as="geometry" />
        </mxCell>
        <mxCell id="JednWGKHNM71uMq3Q5Gv-98" value="TRUE" style="text;html=1;strokeColor=#82b366;fillColor=#d5e8d4;align=center;verticalAlign=middle;whiteSpace=wrap;rounded=0;" parent="WIyWlLk6GJQsqaUBKTNV-1" vertex="1">
          <mxGeometry x="1460" y="-835" width="60" height="30" as="geometry" />
        </mxCell>
        <mxCell id="JednWGKHNM71uMq3Q5Gv-99" value="TRUE" style="text;html=1;strokeColor=#82b366;fillColor=#d5e8d4;align=center;verticalAlign=middle;whiteSpace=wrap;rounded=0;" parent="WIyWlLk6GJQsqaUBKTNV-1" vertex="1">
          <mxGeometry x="1690" y="-835" width="60" height="30" as="geometry" />
        </mxCell>
        <mxCell id="JednWGKHNM71uMq3Q5Gv-100" value="FALSE" style="text;html=1;strokeColor=#b85450;fillColor=#f8cecc;align=center;verticalAlign=middle;whiteSpace=wrap;rounded=0;" parent="WIyWlLk6GJQsqaUBKTNV-1" vertex="1">
          <mxGeometry x="1570" y="-835" width="60" height="30" as="geometry" />
        </mxCell>
        <mxCell id="JednWGKHNM71uMq3Q5Gv-102" value="FALSE" style="text;html=1;strokeColor=#b85450;fillColor=#f8cecc;align=center;verticalAlign=middle;whiteSpace=wrap;rounded=0;" parent="WIyWlLk6GJQsqaUBKTNV-1" vertex="1">
          <mxGeometry x="1460" y="-805" width="60" height="30" as="geometry" />
        </mxCell>
        <mxCell id="JednWGKHNM71uMq3Q5Gv-103" value="FALSE" style="text;html=1;strokeColor=#b85450;fillColor=#f8cecc;align=center;verticalAlign=middle;whiteSpace=wrap;rounded=0;" parent="WIyWlLk6GJQsqaUBKTNV-1" vertex="1">
          <mxGeometry x="1570" y="-805" width="60" height="30" as="geometry" />
        </mxCell>
        <mxCell id="JednWGKHNM71uMq3Q5Gv-104" value="FALSE" style="text;html=1;strokeColor=#b85450;fillColor=#f8cecc;align=center;verticalAlign=middle;whiteSpace=wrap;rounded=0;" parent="WIyWlLk6GJQsqaUBKTNV-1" vertex="1">
          <mxGeometry x="1690" y="-805" width="60" height="30" as="geometry" />
        </mxCell>
        <mxCell id="JednWGKHNM71uMq3Q5Gv-105" value="TRUE" style="text;html=1;strokeColor=#82b366;fillColor=#d5e8d4;align=center;verticalAlign=middle;whiteSpace=wrap;rounded=0;" parent="WIyWlLk6GJQsqaUBKTNV-1" vertex="1">
          <mxGeometry x="1460" y="-775" width="60" height="30" as="geometry" />
        </mxCell>
        <mxCell id="JednWGKHNM71uMq3Q5Gv-106" value="TRUE" style="text;html=1;strokeColor=#82b366;fillColor=#d5e8d4;align=center;verticalAlign=middle;whiteSpace=wrap;rounded=0;" parent="WIyWlLk6GJQsqaUBKTNV-1" vertex="1">
          <mxGeometry x="1690" y="-775" width="60" height="30" as="geometry" />
        </mxCell>
        <mxCell id="JednWGKHNM71uMq3Q5Gv-107" value="TRUE" style="text;html=1;strokeColor=#82b366;fillColor=#d5e8d4;align=center;verticalAlign=middle;whiteSpace=wrap;rounded=0;" parent="WIyWlLk6GJQsqaUBKTNV-1" vertex="1">
          <mxGeometry x="1570" y="-775" width="60" height="30" as="geometry" />
        </mxCell>
        <mxCell id="JednWGKHNM71uMq3Q5Gv-108" value="FALSE" style="text;html=1;strokeColor=#b85450;fillColor=#f8cecc;align=center;verticalAlign=middle;whiteSpace=wrap;rounded=0;" parent="WIyWlLk6GJQsqaUBKTNV-1" vertex="1">
          <mxGeometry x="1460" y="-745" width="60" height="30" as="geometry" />
        </mxCell>
        <mxCell id="JednWGKHNM71uMq3Q5Gv-109" value="FALSE" style="text;html=1;strokeColor=#b85450;fillColor=#f8cecc;align=center;verticalAlign=middle;whiteSpace=wrap;rounded=0;" parent="WIyWlLk6GJQsqaUBKTNV-1" vertex="1">
          <mxGeometry x="1570" y="-745" width="60" height="30" as="geometry" />
        </mxCell>
        <mxCell id="JednWGKHNM71uMq3Q5Gv-110" value="FALSE" style="text;html=1;strokeColor=#b85450;fillColor=#f8cecc;align=center;verticalAlign=middle;whiteSpace=wrap;rounded=0;" parent="WIyWlLk6GJQsqaUBKTNV-1" vertex="1">
          <mxGeometry x="1690" y="-745" width="60" height="30" as="geometry" />
        </mxCell>
        <mxCell id="JednWGKHNM71uMq3Q5Gv-114" value="XOR" style="text;html=1;strokeColor=none;fillColor=none;align=center;verticalAlign=middle;whiteSpace=wrap;rounded=0;" parent="WIyWlLk6GJQsqaUBKTNV-1" vertex="1">
          <mxGeometry x="430" y="-1000" width="60" height="30" as="geometry" />
        </mxCell>
        <mxCell id="JednWGKHNM71uMq3Q5Gv-115" value="NAND&lt;br&gt;" style="text;html=1;strokeColor=none;fillColor=none;align=center;verticalAlign=middle;whiteSpace=wrap;rounded=0;" parent="WIyWlLk6GJQsqaUBKTNV-1" vertex="1">
          <mxGeometry x="500" y="-1000" width="60" height="30" as="geometry" />
        </mxCell>
        <mxCell id="JednWGKHNM71uMq3Q5Gv-116" value="NOR" style="text;html=1;strokeColor=none;fillColor=none;align=center;verticalAlign=middle;whiteSpace=wrap;rounded=0;" parent="WIyWlLk6GJQsqaUBKTNV-1" vertex="1">
          <mxGeometry x="570" y="-1000" width="60" height="30" as="geometry" />
        </mxCell>
        <mxCell id="JednWGKHNM71uMq3Q5Gv-117" value="FALSE" style="text;html=1;strokeColor=#b85450;fillColor=#f8cecc;align=center;verticalAlign=middle;whiteSpace=wrap;rounded=0;" parent="WIyWlLk6GJQsqaUBKTNV-1" vertex="1">
          <mxGeometry x="430" y="-960" width="60" height="30" as="geometry" />
        </mxCell>
        <mxCell id="JednWGKHNM71uMq3Q5Gv-118" value="FALSE" style="text;html=1;strokeColor=#b85450;fillColor=#f8cecc;align=center;verticalAlign=middle;whiteSpace=wrap;rounded=0;" parent="WIyWlLk6GJQsqaUBKTNV-1" vertex="1">
          <mxGeometry x="430" y="-930" width="60" height="30" as="geometry" />
        </mxCell>
        <mxCell id="JednWGKHNM71uMq3Q5Gv-120" value="TRUE" style="text;html=1;strokeColor=#82b366;fillColor=#d5e8d4;align=center;verticalAlign=middle;whiteSpace=wrap;rounded=0;" parent="WIyWlLk6GJQsqaUBKTNV-1" vertex="1">
          <mxGeometry x="430" y="-900" width="60" height="30" as="geometry" />
        </mxCell>
        <mxCell id="JednWGKHNM71uMq3Q5Gv-121" value="TRUE" style="text;html=1;strokeColor=#82b366;fillColor=#d5e8d4;align=center;verticalAlign=middle;whiteSpace=wrap;rounded=0;" parent="WIyWlLk6GJQsqaUBKTNV-1" vertex="1">
          <mxGeometry x="430" y="-870" width="60" height="30" as="geometry" />
        </mxCell>
        <mxCell id="JednWGKHNM71uMq3Q5Gv-123" value="FALSE" style="text;html=1;strokeColor=#b85450;fillColor=#f8cecc;align=center;verticalAlign=middle;whiteSpace=wrap;rounded=0;" parent="WIyWlLk6GJQsqaUBKTNV-1" vertex="1">
          <mxGeometry x="500" y="-960" width="60" height="30" as="geometry" />
        </mxCell>
        <mxCell id="JednWGKHNM71uMq3Q5Gv-124" value="TRUE" style="text;html=1;strokeColor=#82b366;fillColor=#d5e8d4;align=center;verticalAlign=middle;whiteSpace=wrap;rounded=0;" parent="WIyWlLk6GJQsqaUBKTNV-1" vertex="1">
          <mxGeometry x="500" y="-930" width="60" height="30" as="geometry" />
        </mxCell>
        <mxCell id="JednWGKHNM71uMq3Q5Gv-125" value="TRUE" style="text;html=1;strokeColor=#82b366;fillColor=#d5e8d4;align=center;verticalAlign=middle;whiteSpace=wrap;rounded=0;" parent="WIyWlLk6GJQsqaUBKTNV-1" vertex="1">
          <mxGeometry x="500" y="-900" width="60" height="30" as="geometry" />
        </mxCell>
        <mxCell id="JednWGKHNM71uMq3Q5Gv-126" value="TRUE" style="text;html=1;strokeColor=#82b366;fillColor=#d5e8d4;align=center;verticalAlign=middle;whiteSpace=wrap;rounded=0;" parent="WIyWlLk6GJQsqaUBKTNV-1" vertex="1">
          <mxGeometry x="500" y="-870" width="60" height="30" as="geometry" />
        </mxCell>
        <mxCell id="JednWGKHNM71uMq3Q5Gv-128" value="FALSE" style="text;html=1;strokeColor=#b85450;fillColor=#f8cecc;align=center;verticalAlign=middle;whiteSpace=wrap;rounded=0;" parent="WIyWlLk6GJQsqaUBKTNV-1" vertex="1">
          <mxGeometry x="570" y="-960" width="60" height="30" as="geometry" />
        </mxCell>
        <mxCell id="JednWGKHNM71uMq3Q5Gv-129" value="TRUE" style="text;html=1;strokeColor=#82b366;fillColor=#d5e8d4;align=center;verticalAlign=middle;whiteSpace=wrap;rounded=0;" parent="WIyWlLk6GJQsqaUBKTNV-1" vertex="1">
          <mxGeometry x="570" y="-930" width="60" height="30" as="geometry" />
        </mxCell>
        <mxCell id="JednWGKHNM71uMq3Q5Gv-130" value="FALSE" style="text;html=1;strokeColor=#b85450;fillColor=#f8cecc;align=center;verticalAlign=middle;whiteSpace=wrap;rounded=0;" parent="WIyWlLk6GJQsqaUBKTNV-1" vertex="1">
          <mxGeometry x="570" y="-900" width="60" height="30" as="geometry" />
        </mxCell>
        <mxCell id="JednWGKHNM71uMq3Q5Gv-131" value="FALSE" style="text;html=1;strokeColor=#b85450;fillColor=#f8cecc;align=center;verticalAlign=middle;whiteSpace=wrap;rounded=0;" parent="WIyWlLk6GJQsqaUBKTNV-1" vertex="1">
          <mxGeometry x="570" y="-870" width="60" height="30" as="geometry" />
        </mxCell>
        <mxCell id="JednWGKHNM71uMq3Q5Gv-132" value="XNOR" style="text;html=1;strokeColor=none;fillColor=none;align=center;verticalAlign=middle;whiteSpace=wrap;rounded=0;" parent="WIyWlLk6GJQsqaUBKTNV-1" vertex="1">
          <mxGeometry x="640" y="-1000" width="60" height="30" as="geometry" />
        </mxCell>
        <mxCell id="JednWGKHNM71uMq3Q5Gv-133" value="TRUE" style="text;html=1;strokeColor=#82b366;fillColor=#d5e8d4;align=center;verticalAlign=middle;whiteSpace=wrap;rounded=0;" parent="WIyWlLk6GJQsqaUBKTNV-1" vertex="1">
          <mxGeometry x="640" y="-960" width="60" height="30" as="geometry" />
        </mxCell>
        <mxCell id="JednWGKHNM71uMq3Q5Gv-134" value="TRUE" style="text;html=1;strokeColor=#82b366;fillColor=#d5e8d4;align=center;verticalAlign=middle;whiteSpace=wrap;rounded=0;" parent="WIyWlLk6GJQsqaUBKTNV-1" vertex="1">
          <mxGeometry x="640" y="-930" width="60" height="30" as="geometry" />
        </mxCell>
        <mxCell id="JednWGKHNM71uMq3Q5Gv-135" value="FALSE" style="text;html=1;strokeColor=#b85450;fillColor=#f8cecc;align=center;verticalAlign=middle;whiteSpace=wrap;rounded=0;" parent="WIyWlLk6GJQsqaUBKTNV-1" vertex="1">
          <mxGeometry x="640" y="-900" width="60" height="30" as="geometry" />
        </mxCell>
        <mxCell id="JednWGKHNM71uMq3Q5Gv-136" value="FALSE" style="text;html=1;strokeColor=#b85450;fillColor=#f8cecc;align=center;verticalAlign=middle;whiteSpace=wrap;rounded=0;" parent="WIyWlLk6GJQsqaUBKTNV-1" vertex="1">
          <mxGeometry x="640" y="-870" width="60" height="30" as="geometry" />
        </mxCell>
        <mxCell id="JednWGKHNM71uMq3Q5Gv-137" value="NOT" style="text;html=1;strokeColor=none;fillColor=none;align=center;verticalAlign=middle;whiteSpace=wrap;rounded=0;" parent="WIyWlLk6GJQsqaUBKTNV-1" vertex="1">
          <mxGeometry y="-1000" width="60" height="30" as="geometry" />
        </mxCell>
        <mxCell id="JednWGKHNM71uMq3Q5Gv-138" value="TRUE" style="text;html=1;strokeColor=#82b366;fillColor=#d5e8d4;align=center;verticalAlign=middle;whiteSpace=wrap;rounded=0;" parent="WIyWlLk6GJQsqaUBKTNV-1" vertex="1">
          <mxGeometry y="-930" width="60" height="30" as="geometry" />
        </mxCell>
        <mxCell id="JednWGKHNM71uMq3Q5Gv-139" value="FALSE" style="text;html=1;strokeColor=#b85450;fillColor=#f8cecc;align=center;verticalAlign=middle;whiteSpace=wrap;rounded=0;" parent="WIyWlLk6GJQsqaUBKTNV-1" vertex="1">
          <mxGeometry y="-960" width="60" height="30" as="geometry" />
        </mxCell>
        <mxCell id="JednWGKHNM71uMq3Q5Gv-140" value="FALSE" style="text;html=1;strokeColor=#b85450;fillColor=#f8cecc;align=center;verticalAlign=middle;whiteSpace=wrap;rounded=0;" parent="WIyWlLk6GJQsqaUBKTNV-1" vertex="1">
          <mxGeometry x="-70" y="-930" width="60" height="30" as="geometry" />
        </mxCell>
        <mxCell id="JednWGKHNM71uMq3Q5Gv-141" value="TRUE" style="text;html=1;strokeColor=#82b366;fillColor=#d5e8d4;align=center;verticalAlign=middle;whiteSpace=wrap;rounded=0;" parent="WIyWlLk6GJQsqaUBKTNV-1" vertex="1">
          <mxGeometry x="-70" y="-960" width="60" height="30" as="geometry" />
        </mxCell>
        <mxCell id="JednWGKHNM71uMq3Q5Gv-142" value="TRUE" style="text;html=1;strokeColor=#82b366;fillColor=#d5e8d4;align=center;verticalAlign=middle;whiteSpace=wrap;rounded=0;" parent="WIyWlLk6GJQsqaUBKTNV-1" vertex="1">
          <mxGeometry x="-150" y="-960" width="60" height="30" as="geometry" />
        </mxCell>
        <mxCell id="JednWGKHNM71uMq3Q5Gv-143" value="FALSE" style="text;html=1;strokeColor=#b85450;fillColor=#f8cecc;align=center;verticalAlign=middle;whiteSpace=wrap;rounded=0;" parent="WIyWlLk6GJQsqaUBKTNV-1" vertex="1">
          <mxGeometry x="-150" y="-930" width="60" height="30" as="geometry" />
        </mxCell>
        <mxCell id="JednWGKHNM71uMq3Q5Gv-144" value="IF ( 15&amp;gt;10 OR 10&amp;gt;9 )" style="text;html=1;align=center;verticalAlign=middle;resizable=0;points=[];autosize=1;strokeColor=#82b366;fillColor=#d5e8d4;" parent="WIyWlLk6GJQsqaUBKTNV-1" vertex="1">
          <mxGeometry x="310" y="-1650" width="140" height="30" as="geometry" />
        </mxCell>
        <mxCell id="JednWGKHNM71uMq3Q5Gv-145" value="IF ( 15&amp;gt;10 AND 10&amp;gt;9 )" style="text;html=1;align=center;verticalAlign=middle;resizable=0;points=[];autosize=1;strokeColor=#82b366;fillColor=#d5e8d4;" parent="WIyWlLk6GJQsqaUBKTNV-1" vertex="1">
          <mxGeometry x="310" y="-1620" width="140" height="30" as="geometry" />
        </mxCell>
        <mxCell id="JednWGKHNM71uMq3Q5Gv-146" value="IF ( 25&amp;gt;=25 XOR 10&amp;lt;10 )" style="text;html=1;align=center;verticalAlign=middle;resizable=0;points=[];autosize=1;strokeColor=#82b366;fillColor=#d5e8d4;" parent="WIyWlLk6GJQsqaUBKTNV-1" vertex="1">
          <mxGeometry x="300" y="-1590" width="160" height="30" as="geometry" />
        </mxCell>
        <mxCell id="JednWGKHNM71uMq3Q5Gv-147" value="IF ( 25&amp;gt;=25 XOR 10==10 )" style="text;html=1;align=center;verticalAlign=middle;resizable=0;points=[];autosize=1;fillColor=#f8cecc;strokeColor=#b85450;" parent="WIyWlLk6GJQsqaUBKTNV-1" vertex="1">
          <mxGeometry x="295" y="-1560" width="170" height="30" as="geometry" />
        </mxCell>
        <mxCell id="JednWGKHNM71uMq3Q5Gv-148" value="IF ( !(15&amp;lt;=10) AND (25&amp;gt;24 OR 25&amp;lt;24)&amp;nbsp; )" style="text;html=1;align=center;verticalAlign=middle;resizable=0;points=[];autosize=1;fillColor=#d5e8d4;strokeColor=#82b366;" parent="WIyWlLk6GJQsqaUBKTNV-1" vertex="1">
          <mxGeometry x="260" y="-1680" width="240" height="30" as="geometry" />
        </mxCell>
        <mxCell id="JednWGKHNM71uMq3Q5Gv-149" value="if (soleado == TRUE){&lt;br&gt;&lt;span style=&quot;white-space: pre;&quot;&gt;&#x9;&lt;/span&gt;if ( grados &amp;gt; 30 ) {&lt;br&gt;&lt;span style=&quot;white-space: pre;&quot;&gt;&#x9;&lt;/span&gt;&lt;span style=&quot;white-space: pre;&quot;&gt;&#x9;&lt;/span&gt;dejarIrAlRio()&lt;br&gt;&amp;nbsp; &amp;nbsp; &amp;nbsp; &amp;nbsp; }&lt;br&gt;}" style="text;html=1;align=left;verticalAlign=middle;resizable=0;points=[];autosize=1;strokeColor=#b85450;fillColor=#f8cecc;" parent="WIyWlLk6GJQsqaUBKTNV-1" vertex="1">
          <mxGeometry x="175" y="-1780" width="150" height="90" as="geometry" />
        </mxCell>
        <mxCell id="JednWGKHNM71uMq3Q5Gv-150" value="if (soleado == TRUE &amp;amp;&amp;amp; grados &amp;gt; 30) {&lt;br&gt;&lt;span style=&quot;white-space: pre;&quot;&gt;&#x9;&lt;/span&gt;dejarIrAlRio()&lt;br&gt;}" style="text;html=1;align=left;verticalAlign=middle;resizable=0;points=[];autosize=1;strokeColor=#82b366;fillColor=#d5e8d4;" parent="WIyWlLk6GJQsqaUBKTNV-1" vertex="1">
          <mxGeometry x="330" y="-1780" width="230" height="60" as="geometry" />
        </mxCell>
        <mxCell id="JednWGKHNM71uMq3Q5Gv-151" value="FOR (Variable de inicio, Condición de Permanencia, Paso)" style="text;html=1;align=center;verticalAlign=middle;resizable=0;points=[];autosize=1;strokeColor=none;fillColor=none;" parent="WIyWlLk6GJQsqaUBKTNV-1" vertex="1">
          <mxGeometry x="120" y="-2042" width="340" height="30" as="geometry" />
        </mxCell>
        <mxCell id="JednWGKHNM71uMq3Q5Gv-152" value="WHILE (Condición de Permanencia)" style="text;html=1;align=center;verticalAlign=middle;resizable=0;points=[];autosize=1;strokeColor=none;fillColor=none;" parent="WIyWlLk6GJQsqaUBKTNV-1" vertex="1">
          <mxGeometry x="120" y="-2030" width="220" height="30" as="geometry" />
        </mxCell>
        <mxCell id="JednWGKHNM71uMq3Q5Gv-153" value="var count = 0;&lt;br&gt;&lt;br&gt;while (count &amp;lt; 10){&lt;br&gt;&lt;span style=&quot;white-space: pre;&quot;&gt;&#x9;&lt;/span&gt;hacerAlgo();&lt;br&gt;&lt;span style=&quot;white-space: pre;&quot;&gt;&#x9;&lt;/span&gt;count = count + 1;&lt;br&gt;}" style="text;html=1;align=left;verticalAlign=middle;resizable=0;points=[];autosize=1;strokeColor=none;fillColor=none;" parent="WIyWlLk6GJQsqaUBKTNV-1" vertex="1">
          <mxGeometry x="125" y="-1970" width="150" height="100" as="geometry" />
        </mxCell>
        <mxCell id="JednWGKHNM71uMq3Q5Gv-154" value="for( var i = 0; i&amp;lt;10; i++){&lt;br&gt;&lt;span style=&quot;white-space: pre;&quot;&gt;&#x9;&lt;/span&gt;hacerAlgo();&lt;br&gt;}" style="text;html=1;align=left;verticalAlign=middle;resizable=0;points=[];autosize=1;strokeColor=none;fillColor=none;" parent="WIyWlLk6GJQsqaUBKTNV-1" vertex="1">
          <mxGeometry x="305" y="-1970" width="150" height="60" as="geometry" />
        </mxCell>
        <mxCell id="3zMqxZnbhDVnHztFKcLT-2" value="" style="edgeStyle=orthogonalEdgeStyle;rounded=0;orthogonalLoop=1;jettySize=auto;html=1;" parent="WIyWlLk6GJQsqaUBKTNV-1" source="3zMqxZnbhDVnHztFKcLT-0" target="3zMqxZnbhDVnHztFKcLT-1" edge="1">
          <mxGeometry relative="1" as="geometry" />
        </mxCell>
        <mxCell id="3zMqxZnbhDVnHztFKcLT-0" value="INICIO" style="ellipse;whiteSpace=wrap;html=1;" parent="WIyWlLk6GJQsqaUBKTNV-1" vertex="1">
          <mxGeometry x="185" y="-2680" width="80" height="40" as="geometry" />
        </mxCell>
        <mxCell id="3zMqxZnbhDVnHztFKcLT-4" value="" style="edgeStyle=orthogonalEdgeStyle;rounded=0;orthogonalLoop=1;jettySize=auto;html=1;" parent="WIyWlLk6GJQsqaUBKTNV-1" source="3zMqxZnbhDVnHztFKcLT-1" target="3zMqxZnbhDVnHztFKcLT-3" edge="1">
          <mxGeometry relative="1" as="geometry" />
        </mxCell>
        <mxCell id="3zMqxZnbhDVnHztFKcLT-1" value="numeros = [ ]&lt;br&gt;input = 0" style="shape=parallelogram;perimeter=parallelogramPerimeter;whiteSpace=wrap;html=1;fixedSize=1;" parent="WIyWlLk6GJQsqaUBKTNV-1" vertex="1">
          <mxGeometry x="150" y="-2610" width="150" height="40" as="geometry" />
        </mxCell>
        <mxCell id="3zMqxZnbhDVnHztFKcLT-6" value="SI" style="edgeStyle=orthogonalEdgeStyle;rounded=0;orthogonalLoop=1;jettySize=auto;html=1;" parent="WIyWlLk6GJQsqaUBKTNV-1" source="3zMqxZnbhDVnHztFKcLT-3" target="3zMqxZnbhDVnHztFKcLT-5" edge="1">
          <mxGeometry relative="1" as="geometry" />
        </mxCell>
        <mxCell id="3zMqxZnbhDVnHztFKcLT-15" value="NO" style="edgeStyle=orthogonalEdgeStyle;rounded=0;orthogonalLoop=1;jettySize=auto;html=1;exitX=1;exitY=0.5;exitDx=0;exitDy=0;entryX=0.5;entryY=0;entryDx=0;entryDy=0;" parent="WIyWlLk6GJQsqaUBKTNV-1" source="3zMqxZnbhDVnHztFKcLT-3" target="3zMqxZnbhDVnHztFKcLT-14" edge="1">
          <mxGeometry x="-0.5582" relative="1" as="geometry">
            <Array as="points">
              <mxPoint x="310" y="-2513" />
              <mxPoint x="310" y="-2400" />
              <mxPoint x="225" y="-2400" />
            </Array>
            <mxPoint as="offset" />
          </mxGeometry>
        </mxCell>
        <mxCell id="3zMqxZnbhDVnHztFKcLT-3" value="input != &quot;X&quot;" style="rhombus;whiteSpace=wrap;html=1;" parent="WIyWlLk6GJQsqaUBKTNV-1" vertex="1">
          <mxGeometry x="160" y="-2538" width="130" height="50" as="geometry" />
        </mxCell>
        <mxCell id="3zMqxZnbhDVnHztFKcLT-8" style="edgeStyle=orthogonalEdgeStyle;rounded=0;orthogonalLoop=1;jettySize=auto;html=1;exitX=0.5;exitY=1;exitDx=0;exitDy=0;" parent="WIyWlLk6GJQsqaUBKTNV-1" source="3zMqxZnbhDVnHztFKcLT-5" edge="1">
          <mxGeometry relative="1" as="geometry">
            <mxPoint x="225.23809523809518" y="-2560" as="targetPoint" />
            <Array as="points">
              <mxPoint x="225" y="-2410" />
              <mxPoint x="105" y="-2410" />
              <mxPoint x="105" y="-2560" />
            </Array>
          </mxGeometry>
        </mxCell>
        <mxCell id="3zMqxZnbhDVnHztFKcLT-5" value="solicitarNumero()&lt;br&gt;numeros.add(input)" style="whiteSpace=wrap;html=1;" parent="WIyWlLk6GJQsqaUBKTNV-1" vertex="1">
          <mxGeometry x="165" y="-2460" width="120" height="40" as="geometry" />
        </mxCell>
        <mxCell id="3zMqxZnbhDVnHztFKcLT-17" value="" style="edgeStyle=orthogonalEdgeStyle;rounded=0;orthogonalLoop=1;jettySize=auto;html=1;" parent="WIyWlLk6GJQsqaUBKTNV-1" source="3zMqxZnbhDVnHztFKcLT-14" target="3zMqxZnbhDVnHztFKcLT-16" edge="1">
          <mxGeometry relative="1" as="geometry" />
        </mxCell>
        <mxCell id="3zMqxZnbhDVnHztFKcLT-14" value="sumarNumeros()&lt;br&gt;mostrarResultado()" style="whiteSpace=wrap;html=1;" parent="WIyWlLk6GJQsqaUBKTNV-1" vertex="1">
          <mxGeometry x="165" y="-2378" width="120" height="40" as="geometry" />
        </mxCell>
        <mxCell id="3zMqxZnbhDVnHztFKcLT-16" value="FIN" style="ellipse;whiteSpace=wrap;html=1;" parent="WIyWlLk6GJQsqaUBKTNV-1" vertex="1">
          <mxGeometry x="185" y="-2310" width="80" height="40" as="geometry" />
        </mxCell>
        <mxCell id="3zMqxZnbhDVnHztFKcLT-20" value="" style="edgeStyle=orthogonalEdgeStyle;rounded=0;orthogonalLoop=1;jettySize=auto;html=1;" parent="WIyWlLk6GJQsqaUBKTNV-1" source="3zMqxZnbhDVnHztFKcLT-18" edge="1">
          <mxGeometry relative="1" as="geometry">
            <mxPoint x="560" y="-2620" as="targetPoint" />
          </mxGeometry>
        </mxCell>
        <mxCell id="3zMqxZnbhDVnHztFKcLT-18" value="INICIO" style="ellipse;whiteSpace=wrap;html=1;" parent="WIyWlLk6GJQsqaUBKTNV-1" vertex="1">
          <mxGeometry x="520" y="-2680" width="80" height="40" as="geometry" />
        </mxCell>
        <mxCell id="3zMqxZnbhDVnHztFKcLT-23" value="" style="edgeStyle=orthogonalEdgeStyle;rounded=0;orthogonalLoop=1;jettySize=auto;html=1;" parent="WIyWlLk6GJQsqaUBKTNV-1" source="3zMqxZnbhDVnHztFKcLT-21" target="3zMqxZnbhDVnHztFKcLT-22" edge="1">
          <mxGeometry relative="1" as="geometry" />
        </mxCell>
        <mxCell id="3zMqxZnbhDVnHztFKcLT-21" value="numeros = [ ]&lt;br&gt;input = 0" style="shape=parallelogram;perimeter=parallelogramPerimeter;whiteSpace=wrap;html=1;fixedSize=1;" parent="WIyWlLk6GJQsqaUBKTNV-1" vertex="1">
          <mxGeometry x="485" y="-2620" width="150" height="40" as="geometry" />
        </mxCell>
        <mxCell id="3zMqxZnbhDVnHztFKcLT-25" value="" style="edgeStyle=orthogonalEdgeStyle;rounded=0;orthogonalLoop=1;jettySize=auto;html=1;" parent="WIyWlLk6GJQsqaUBKTNV-1" source="3zMqxZnbhDVnHztFKcLT-22" target="3zMqxZnbhDVnHztFKcLT-24" edge="1">
          <mxGeometry relative="1" as="geometry" />
        </mxCell>
        <mxCell id="3zMqxZnbhDVnHztFKcLT-31" style="edgeStyle=orthogonalEdgeStyle;rounded=0;orthogonalLoop=1;jettySize=auto;html=1;exitX=1;exitY=0.5;exitDx=0;exitDy=0;entryX=0.5;entryY=0;entryDx=0;entryDy=0;" parent="WIyWlLk6GJQsqaUBKTNV-1" source="3zMqxZnbhDVnHztFKcLT-22" target="3zMqxZnbhDVnHztFKcLT-29" edge="1">
          <mxGeometry relative="1" as="geometry">
            <Array as="points">
              <mxPoint x="655" y="-2530" />
              <mxPoint x="655" y="-2400" />
              <mxPoint x="560" y="-2400" />
            </Array>
          </mxGeometry>
        </mxCell>
        <mxCell id="3zMqxZnbhDVnHztFKcLT-22" value="x = 1; x &amp;lt;= 3; x++" style="shape=hexagon;perimeter=hexagonPerimeter2;whiteSpace=wrap;html=1;fixedSize=1;" parent="WIyWlLk6GJQsqaUBKTNV-1" vertex="1">
          <mxGeometry x="485" y="-2550" width="150" height="40" as="geometry" />
        </mxCell>
        <mxCell id="3zMqxZnbhDVnHztFKcLT-24" value="" style="whiteSpace=wrap;html=1;" parent="WIyWlLk6GJQsqaUBKTNV-1" vertex="1">
          <mxGeometry x="500" y="-2480" width="120" height="40" as="geometry" />
        </mxCell>
        <mxCell id="3zMqxZnbhDVnHztFKcLT-27" style="edgeStyle=orthogonalEdgeStyle;rounded=0;orthogonalLoop=1;jettySize=auto;html=1;exitX=0.5;exitY=1;exitDx=0;exitDy=0;entryX=0;entryY=0.5;entryDx=0;entryDy=0;" parent="WIyWlLk6GJQsqaUBKTNV-1" source="3zMqxZnbhDVnHztFKcLT-26" target="3zMqxZnbhDVnHztFKcLT-22" edge="1">
          <mxGeometry relative="1" as="geometry" />
        </mxCell>
        <mxCell id="3zMqxZnbhDVnHztFKcLT-26" value="solicitarNumero()&lt;br&gt;numeros.add(input)" style="whiteSpace=wrap;html=1;" parent="WIyWlLk6GJQsqaUBKTNV-1" vertex="1">
          <mxGeometry x="500" y="-2480" width="120" height="40" as="geometry" />
        </mxCell>
        <mxCell id="3zMqxZnbhDVnHztFKcLT-29" value="" style="whiteSpace=wrap;html=1;" parent="WIyWlLk6GJQsqaUBKTNV-1" vertex="1">
          <mxGeometry x="500" y="-2378" width="120" height="38" as="geometry" />
        </mxCell>
        <mxCell id="3zMqxZnbhDVnHztFKcLT-34" value="" style="edgeStyle=orthogonalEdgeStyle;rounded=0;orthogonalLoop=1;jettySize=auto;html=1;" parent="WIyWlLk6GJQsqaUBKTNV-1" source="3zMqxZnbhDVnHztFKcLT-32" target="3zMqxZnbhDVnHztFKcLT-33" edge="1">
          <mxGeometry relative="1" as="geometry" />
        </mxCell>
        <mxCell id="3zMqxZnbhDVnHztFKcLT-32" value="sumarNumeros()&lt;br&gt;mostrarResultado()" style="whiteSpace=wrap;html=1;" parent="WIyWlLk6GJQsqaUBKTNV-1" vertex="1">
          <mxGeometry x="500" y="-2378" width="120" height="40" as="geometry" />
        </mxCell>
        <mxCell id="3zMqxZnbhDVnHztFKcLT-33" value="FIN" style="ellipse;whiteSpace=wrap;html=1;" parent="WIyWlLk6GJQsqaUBKTNV-1" vertex="1">
          <mxGeometry x="520" y="-2310" width="80" height="40" as="geometry" />
        </mxCell>
        <mxCell id="3zMqxZnbhDVnHztFKcLT-35" value="" style="edgeStyle=orthogonalEdgeStyle;rounded=0;orthogonalLoop=1;jettySize=auto;html=1;" parent="WIyWlLk6GJQsqaUBKTNV-1" source="3zMqxZnbhDVnHztFKcLT-36" target="3zMqxZnbhDVnHztFKcLT-38" edge="1">
          <mxGeometry relative="1" as="geometry" />
        </mxCell>
        <mxCell id="3zMqxZnbhDVnHztFKcLT-36" value="INICIO" style="ellipse;whiteSpace=wrap;html=1;" parent="WIyWlLk6GJQsqaUBKTNV-1" vertex="1">
          <mxGeometry x="120" y="-3210" width="80" height="40" as="geometry" />
        </mxCell>
        <mxCell id="3zMqxZnbhDVnHztFKcLT-37" value="" style="edgeStyle=orthogonalEdgeStyle;rounded=0;orthogonalLoop=1;jettySize=auto;html=1;" parent="WIyWlLk6GJQsqaUBKTNV-1" source="3zMqxZnbhDVnHztFKcLT-38" target="3zMqxZnbhDVnHztFKcLT-41" edge="1">
          <mxGeometry relative="1" as="geometry" />
        </mxCell>
        <mxCell id="3zMqxZnbhDVnHztFKcLT-38" value="numeros = [ ]&lt;br&gt;input = 0" style="shape=parallelogram;perimeter=parallelogramPerimeter;whiteSpace=wrap;html=1;fixedSize=1;" parent="WIyWlLk6GJQsqaUBKTNV-1" vertex="1">
          <mxGeometry x="85" y="-3140" width="150" height="40" as="geometry" />
        </mxCell>
        <mxCell id="3zMqxZnbhDVnHztFKcLT-39" value="SI" style="edgeStyle=orthogonalEdgeStyle;rounded=0;orthogonalLoop=1;jettySize=auto;html=1;" parent="WIyWlLk6GJQsqaUBKTNV-1" source="3zMqxZnbhDVnHztFKcLT-41" target="3zMqxZnbhDVnHztFKcLT-43" edge="1">
          <mxGeometry relative="1" as="geometry" />
        </mxCell>
        <mxCell id="3zMqxZnbhDVnHztFKcLT-40" value="NO" style="edgeStyle=orthogonalEdgeStyle;rounded=0;orthogonalLoop=1;jettySize=auto;html=1;exitX=1;exitY=0.5;exitDx=0;exitDy=0;entryX=0.5;entryY=0;entryDx=0;entryDy=0;" parent="WIyWlLk6GJQsqaUBKTNV-1" source="3zMqxZnbhDVnHztFKcLT-41" target="3zMqxZnbhDVnHztFKcLT-45" edge="1">
          <mxGeometry x="-0.5582" relative="1" as="geometry">
            <Array as="points">
              <mxPoint x="245" y="-3043" />
              <mxPoint x="245" y="-2930" />
              <mxPoint x="160" y="-2930" />
            </Array>
            <mxPoint as="offset" />
          </mxGeometry>
        </mxCell>
        <mxCell id="3zMqxZnbhDVnHztFKcLT-41" value="input != &quot;X&quot;" style="rhombus;whiteSpace=wrap;html=1;" parent="WIyWlLk6GJQsqaUBKTNV-1" vertex="1">
          <mxGeometry x="95" y="-3068" width="130" height="50" as="geometry" />
        </mxCell>
        <mxCell id="3zMqxZnbhDVnHztFKcLT-42" style="edgeStyle=orthogonalEdgeStyle;rounded=0;orthogonalLoop=1;jettySize=auto;html=1;exitX=0.5;exitY=1;exitDx=0;exitDy=0;" parent="WIyWlLk6GJQsqaUBKTNV-1" source="3zMqxZnbhDVnHztFKcLT-43" edge="1">
          <mxGeometry relative="1" as="geometry">
            <mxPoint x="160.23809523809518" y="-3090" as="targetPoint" />
            <Array as="points">
              <mxPoint x="160" y="-2940" />
              <mxPoint x="40" y="-2940" />
              <mxPoint x="40" y="-3090" />
            </Array>
          </mxGeometry>
        </mxCell>
        <mxCell id="3zMqxZnbhDVnHztFKcLT-43" value="solicitarNumero()&lt;br&gt;numeros.add(input)" style="whiteSpace=wrap;html=1;" parent="WIyWlLk6GJQsqaUBKTNV-1" vertex="1">
          <mxGeometry x="100" y="-2990" width="120" height="40" as="geometry" />
        </mxCell>
        <mxCell id="3zMqxZnbhDVnHztFKcLT-44" value="" style="edgeStyle=orthogonalEdgeStyle;rounded=0;orthogonalLoop=1;jettySize=auto;html=1;" parent="WIyWlLk6GJQsqaUBKTNV-1" source="3zMqxZnbhDVnHztFKcLT-45" target="3zMqxZnbhDVnHztFKcLT-46" edge="1">
          <mxGeometry relative="1" as="geometry" />
        </mxCell>
        <mxCell id="3zMqxZnbhDVnHztFKcLT-45" value="sumarNumeros()&lt;br&gt;mostrarResultado()" style="whiteSpace=wrap;html=1;" parent="WIyWlLk6GJQsqaUBKTNV-1" vertex="1">
          <mxGeometry x="100" y="-2908" width="120" height="40" as="geometry" />
        </mxCell>
        <mxCell id="3zMqxZnbhDVnHztFKcLT-46" value="FIN" style="ellipse;whiteSpace=wrap;html=1;" parent="WIyWlLk6GJQsqaUBKTNV-1" vertex="1">
          <mxGeometry x="120" y="-2840" width="80" height="40" as="geometry" />
        </mxCell>
        <mxCell id="3zMqxZnbhDVnHztFKcLT-47" value="" style="edgeStyle=orthogonalEdgeStyle;rounded=0;orthogonalLoop=1;jettySize=auto;html=1;" parent="WIyWlLk6GJQsqaUBKTNV-1" source="3zMqxZnbhDVnHztFKcLT-48" target="3zMqxZnbhDVnHztFKcLT-49" edge="1">
          <mxGeometry relative="1" as="geometry" />
        </mxCell>
        <mxCell id="3zMqxZnbhDVnHztFKcLT-48" value="INICIO" style="ellipse;whiteSpace=wrap;html=1;" parent="WIyWlLk6GJQsqaUBKTNV-1" vertex="1">
          <mxGeometry x="510" y="-3210" width="80" height="40" as="geometry" />
        </mxCell>
        <mxCell id="3zMqxZnbhDVnHztFKcLT-51" value="" style="edgeStyle=orthogonalEdgeStyle;rounded=0;orthogonalLoop=1;jettySize=auto;html=1;" parent="WIyWlLk6GJQsqaUBKTNV-1" source="3zMqxZnbhDVnHztFKcLT-49" target="3zMqxZnbhDVnHztFKcLT-50" edge="1">
          <mxGeometry relative="1" as="geometry" />
        </mxCell>
        <mxCell id="3zMqxZnbhDVnHztFKcLT-49" value="numeros = [ ]&lt;br&gt;input = 0" style="shape=parallelogram;perimeter=parallelogramPerimeter;whiteSpace=wrap;html=1;fixedSize=1;" parent="WIyWlLk6GJQsqaUBKTNV-1" vertex="1">
          <mxGeometry x="475" y="-3140" width="150" height="40" as="geometry" />
        </mxCell>
        <mxCell id="3zMqxZnbhDVnHztFKcLT-53" value="" style="edgeStyle=orthogonalEdgeStyle;rounded=0;orthogonalLoop=1;jettySize=auto;html=1;" parent="WIyWlLk6GJQsqaUBKTNV-1" source="3zMqxZnbhDVnHztFKcLT-50" target="3zMqxZnbhDVnHztFKcLT-52" edge="1">
          <mxGeometry relative="1" as="geometry" />
        </mxCell>
        <mxCell id="3zMqxZnbhDVnHztFKcLT-50" value="solicitarNumero()&lt;br&gt;numeros.add(input)" style="whiteSpace=wrap;html=1;" parent="WIyWlLk6GJQsqaUBKTNV-1" vertex="1">
          <mxGeometry x="490" y="-3068" width="120" height="40" as="geometry" />
        </mxCell>
        <mxCell id="3zMqxZnbhDVnHztFKcLT-54" value="SI" style="edgeStyle=orthogonalEdgeStyle;rounded=0;orthogonalLoop=1;jettySize=auto;html=1;exitX=1;exitY=0.5;exitDx=0;exitDy=0;" parent="WIyWlLk6GJQsqaUBKTNV-1" source="3zMqxZnbhDVnHztFKcLT-52" edge="1">
          <mxGeometry x="-0.6818" y="5" relative="1" as="geometry">
            <mxPoint x="550" y="-3090" as="targetPoint" />
            <Array as="points">
              <mxPoint x="635" y="-2975" />
              <mxPoint x="635" y="-3090" />
            </Array>
            <mxPoint as="offset" />
          </mxGeometry>
        </mxCell>
        <mxCell id="3zMqxZnbhDVnHztFKcLT-58" value="" style="edgeStyle=orthogonalEdgeStyle;rounded=0;orthogonalLoop=1;jettySize=auto;html=1;" parent="WIyWlLk6GJQsqaUBKTNV-1" source="3zMqxZnbhDVnHztFKcLT-52" target="3zMqxZnbhDVnHztFKcLT-57" edge="1">
          <mxGeometry relative="1" as="geometry" />
        </mxCell>
        <mxCell id="3zMqxZnbhDVnHztFKcLT-52" value="input != &quot;X&quot;" style="rhombus;whiteSpace=wrap;html=1;" parent="WIyWlLk6GJQsqaUBKTNV-1" vertex="1">
          <mxGeometry x="485" y="-3000" width="130" height="50" as="geometry" />
        </mxCell>
        <mxCell id="3zMqxZnbhDVnHztFKcLT-60" value="" style="edgeStyle=orthogonalEdgeStyle;rounded=0;orthogonalLoop=1;jettySize=auto;html=1;" parent="WIyWlLk6GJQsqaUBKTNV-1" source="3zMqxZnbhDVnHztFKcLT-57" target="3zMqxZnbhDVnHztFKcLT-59" edge="1">
          <mxGeometry relative="1" as="geometry" />
        </mxCell>
        <mxCell id="3zMqxZnbhDVnHztFKcLT-57" value="sumarNumeros()&lt;br&gt;mostrarResultado()" style="whiteSpace=wrap;html=1;" parent="WIyWlLk6GJQsqaUBKTNV-1" vertex="1">
          <mxGeometry x="490" y="-2930" width="120" height="40" as="geometry" />
        </mxCell>
        <mxCell id="3zMqxZnbhDVnHztFKcLT-59" value="FIN" style="ellipse;whiteSpace=wrap;html=1;" parent="WIyWlLk6GJQsqaUBKTNV-1" vertex="1">
          <mxGeometry x="510" y="-2868" width="80" height="40" as="geometry" />
        </mxCell>
        <mxCell id="3zMqxZnbhDVnHztFKcLT-61" value="" style="edgeStyle=orthogonalEdgeStyle;rounded=0;orthogonalLoop=1;jettySize=auto;html=1;" parent="WIyWlLk6GJQsqaUBKTNV-1" source="3zMqxZnbhDVnHztFKcLT-62" target="3zMqxZnbhDVnHztFKcLT-64" edge="1">
          <mxGeometry relative="1" as="geometry" />
        </mxCell>
        <mxCell id="3zMqxZnbhDVnHztFKcLT-62" value="INICIO" style="ellipse;whiteSpace=wrap;html=1;" parent="WIyWlLk6GJQsqaUBKTNV-1" vertex="1">
          <mxGeometry x="255" y="-3700" width="80" height="40" as="geometry" />
        </mxCell>
        <mxCell id="3zMqxZnbhDVnHztFKcLT-63" value="" style="edgeStyle=orthogonalEdgeStyle;rounded=0;orthogonalLoop=1;jettySize=auto;html=1;" parent="WIyWlLk6GJQsqaUBKTNV-1" source="3zMqxZnbhDVnHztFKcLT-64" target="3zMqxZnbhDVnHztFKcLT-66" edge="1">
          <mxGeometry relative="1" as="geometry" />
        </mxCell>
        <mxCell id="3zMqxZnbhDVnHztFKcLT-64" value="numeros = [ ]&lt;br&gt;input = 0" style="shape=parallelogram;perimeter=parallelogramPerimeter;whiteSpace=wrap;html=1;fixedSize=1;" parent="WIyWlLk6GJQsqaUBKTNV-1" vertex="1">
          <mxGeometry x="220" y="-3630" width="150" height="40" as="geometry" />
        </mxCell>
        <mxCell id="3zMqxZnbhDVnHztFKcLT-65" value="" style="edgeStyle=orthogonalEdgeStyle;rounded=0;orthogonalLoop=1;jettySize=auto;html=1;" parent="WIyWlLk6GJQsqaUBKTNV-1" source="3zMqxZnbhDVnHztFKcLT-66" edge="1">
          <mxGeometry relative="1" as="geometry">
            <mxPoint x="295" y="-3490" as="targetPoint" />
          </mxGeometry>
        </mxCell>
        <mxCell id="3zMqxZnbhDVnHztFKcLT-66" value="solicitarNumeros()" style="whiteSpace=wrap;html=1;" parent="WIyWlLk6GJQsqaUBKTNV-1" vertex="1">
          <mxGeometry x="235" y="-3558" width="120" height="40" as="geometry" />
        </mxCell>
        <mxCell id="3zMqxZnbhDVnHztFKcLT-70" value="" style="edgeStyle=orthogonalEdgeStyle;rounded=0;orthogonalLoop=1;jettySize=auto;html=1;" parent="WIyWlLk6GJQsqaUBKTNV-1" source="3zMqxZnbhDVnHztFKcLT-71" target="3zMqxZnbhDVnHztFKcLT-72" edge="1">
          <mxGeometry relative="1" as="geometry" />
        </mxCell>
        <mxCell id="3zMqxZnbhDVnHztFKcLT-71" value="restarNumeros()&lt;br&gt;mostrarResultado()" style="whiteSpace=wrap;html=1;" parent="WIyWlLk6GJQsqaUBKTNV-1" vertex="1">
          <mxGeometry x="235" y="-3490" width="120" height="40" as="geometry" />
        </mxCell>
        <mxCell id="3zMqxZnbhDVnHztFKcLT-72" value="FIN" style="ellipse;whiteSpace=wrap;html=1;" parent="WIyWlLk6GJQsqaUBKTNV-1" vertex="1">
          <mxGeometry x="255" y="-3430" width="80" height="40" as="geometry" />
        </mxCell>
        <mxCell id="3zMqxZnbhDVnHztFKcLT-73" value="" style="edgeStyle=orthogonalEdgeStyle;rounded=0;orthogonalLoop=1;jettySize=auto;html=1;" parent="WIyWlLk6GJQsqaUBKTNV-1" source="3zMqxZnbhDVnHztFKcLT-74" target="3zMqxZnbhDVnHztFKcLT-76" edge="1">
          <mxGeometry relative="1" as="geometry" />
        </mxCell>
        <mxCell id="3zMqxZnbhDVnHztFKcLT-74" value="solicitarNumeros&lt;br&gt;" style="ellipse;whiteSpace=wrap;html=1;" parent="WIyWlLk6GJQsqaUBKTNV-1" vertex="1">
          <mxGeometry x="497.5" y="-3700" width="135" height="40" as="geometry" />
        </mxCell>
        <mxCell id="3zMqxZnbhDVnHztFKcLT-89" value="" style="edgeStyle=orthogonalEdgeStyle;rounded=0;orthogonalLoop=1;jettySize=auto;html=1;" parent="WIyWlLk6GJQsqaUBKTNV-1" source="3zMqxZnbhDVnHztFKcLT-76" target="3zMqxZnbhDVnHztFKcLT-88" edge="1">
          <mxGeometry relative="1" as="geometry" />
        </mxCell>
        <mxCell id="3zMqxZnbhDVnHztFKcLT-76" value="solicitarUnNumero()" style="shape=parallelogram;perimeter=parallelogramPerimeter;whiteSpace=wrap;html=1;fixedSize=1;" parent="WIyWlLk6GJQsqaUBKTNV-1" vertex="1">
          <mxGeometry x="490" y="-3590" width="150" height="40" as="geometry" />
        </mxCell>
        <mxCell id="3zMqxZnbhDVnHztFKcLT-77" value="" style="edgeStyle=orthogonalEdgeStyle;rounded=0;orthogonalLoop=1;jettySize=auto;html=1;" parent="WIyWlLk6GJQsqaUBKTNV-1" source="3zMqxZnbhDVnHztFKcLT-78" edge="1">
          <mxGeometry relative="1" as="geometry">
            <mxPoint x="565" y="-3382" as="targetPoint" />
          </mxGeometry>
        </mxCell>
        <mxCell id="3zMqxZnbhDVnHztFKcLT-78" value="numeros.add(input)" style="whiteSpace=wrap;html=1;" parent="WIyWlLk6GJQsqaUBKTNV-1" vertex="1">
          <mxGeometry x="505" y="-3450" width="120" height="40" as="geometry" />
        </mxCell>
        <mxCell id="3zMqxZnbhDVnHztFKcLT-84" style="edgeStyle=orthogonalEdgeStyle;rounded=0;orthogonalLoop=1;jettySize=auto;html=1;exitX=0.5;exitY=1;exitDx=0;exitDy=0;entryX=0;entryY=0.5;entryDx=0;entryDy=0;" parent="WIyWlLk6GJQsqaUBKTNV-1" source="3zMqxZnbhDVnHztFKcLT-83" target="3zMqxZnbhDVnHztFKcLT-74" edge="1">
          <mxGeometry relative="1" as="geometry">
            <Array as="points">
              <mxPoint x="565" y="-3322" />
              <mxPoint x="460" y="-3322" />
              <mxPoint x="460" y="-3680" />
            </Array>
          </mxGeometry>
        </mxCell>
        <mxCell id="3zMqxZnbhDVnHztFKcLT-83" value="solicitarNumeros()" style="whiteSpace=wrap;html=1;" parent="WIyWlLk6GJQsqaUBKTNV-1" vertex="1">
          <mxGeometry x="505" y="-3382" width="120" height="40" as="geometry" />
        </mxCell>
        <mxCell id="3zMqxZnbhDVnHztFKcLT-90" value="SI" style="edgeStyle=orthogonalEdgeStyle;rounded=0;orthogonalLoop=1;jettySize=auto;html=1;" parent="WIyWlLk6GJQsqaUBKTNV-1" source="3zMqxZnbhDVnHztFKcLT-88" target="3zMqxZnbhDVnHztFKcLT-78" edge="1">
          <mxGeometry relative="1" as="geometry" />
        </mxCell>
        <mxCell id="3zMqxZnbhDVnHztFKcLT-92" value="NO" style="edgeStyle=orthogonalEdgeStyle;rounded=0;orthogonalLoop=1;jettySize=auto;html=1;" parent="WIyWlLk6GJQsqaUBKTNV-1" source="3zMqxZnbhDVnHztFKcLT-88" target="3zMqxZnbhDVnHztFKcLT-91" edge="1">
          <mxGeometry relative="1" as="geometry" />
        </mxCell>
        <mxCell id="3zMqxZnbhDVnHztFKcLT-88" value="input != &quot;X&quot;" style="rhombus;whiteSpace=wrap;html=1;" parent="WIyWlLk6GJQsqaUBKTNV-1" vertex="1">
          <mxGeometry x="526" y="-3518" width="80" height="40" as="geometry" />
        </mxCell>
        <mxCell id="3zMqxZnbhDVnHztFKcLT-91" value="return" style="ellipse;whiteSpace=wrap;html=1;" parent="WIyWlLk6GJQsqaUBKTNV-1" vertex="1">
          <mxGeometry x="660" y="-3519.5" width="60" height="43" as="geometry" />
        </mxCell>
        <mxCell id="3zMqxZnbhDVnHztFKcLT-97" value="" style="edgeStyle=orthogonalEdgeStyle;rounded=0;orthogonalLoop=1;jettySize=auto;html=1;" parent="WIyWlLk6GJQsqaUBKTNV-1" source="3zMqxZnbhDVnHztFKcLT-98" target="3zMqxZnbhDVnHztFKcLT-100" edge="1">
          <mxGeometry relative="1" as="geometry" />
        </mxCell>
        <mxCell id="3zMqxZnbhDVnHztFKcLT-98" value="INICIO" style="ellipse;whiteSpace=wrap;html=1;" parent="WIyWlLk6GJQsqaUBKTNV-1" vertex="1">
          <mxGeometry x="50" y="-3700" width="80" height="40" as="geometry" />
        </mxCell>
        <mxCell id="3zMqxZnbhDVnHztFKcLT-99" value="" style="edgeStyle=orthogonalEdgeStyle;rounded=0;orthogonalLoop=1;jettySize=auto;html=1;" parent="WIyWlLk6GJQsqaUBKTNV-1" source="3zMqxZnbhDVnHztFKcLT-100" target="3zMqxZnbhDVnHztFKcLT-102" edge="1">
          <mxGeometry relative="1" as="geometry" />
        </mxCell>
        <mxCell id="3zMqxZnbhDVnHztFKcLT-100" value="numeros = [ ]&lt;br&gt;input = 0" style="shape=parallelogram;perimeter=parallelogramPerimeter;whiteSpace=wrap;html=1;fixedSize=1;" parent="WIyWlLk6GJQsqaUBKTNV-1" vertex="1">
          <mxGeometry x="15" y="-3630" width="150" height="40" as="geometry" />
        </mxCell>
        <mxCell id="3zMqxZnbhDVnHztFKcLT-101" value="" style="edgeStyle=orthogonalEdgeStyle;rounded=0;orthogonalLoop=1;jettySize=auto;html=1;" parent="WIyWlLk6GJQsqaUBKTNV-1" source="3zMqxZnbhDVnHztFKcLT-102" edge="1">
          <mxGeometry relative="1" as="geometry">
            <mxPoint x="90" y="-3490" as="targetPoint" />
          </mxGeometry>
        </mxCell>
        <mxCell id="3zMqxZnbhDVnHztFKcLT-102" value="solicitarNumeros()" style="whiteSpace=wrap;html=1;" parent="WIyWlLk6GJQsqaUBKTNV-1" vertex="1">
          <mxGeometry x="30" y="-3558" width="120" height="40" as="geometry" />
        </mxCell>
        <mxCell id="3zMqxZnbhDVnHztFKcLT-103" value="" style="edgeStyle=orthogonalEdgeStyle;rounded=0;orthogonalLoop=1;jettySize=auto;html=1;" parent="WIyWlLk6GJQsqaUBKTNV-1" source="3zMqxZnbhDVnHztFKcLT-104" target="3zMqxZnbhDVnHztFKcLT-105" edge="1">
          <mxGeometry relative="1" as="geometry" />
        </mxCell>
        <mxCell id="3zMqxZnbhDVnHztFKcLT-104" value="sumarNumeros()&lt;br&gt;mostrarResultado()" style="whiteSpace=wrap;html=1;" parent="WIyWlLk6GJQsqaUBKTNV-1" vertex="1">
          <mxGeometry x="30" y="-3490" width="120" height="40" as="geometry" />
        </mxCell>
        <mxCell id="3zMqxZnbhDVnHztFKcLT-105" value="FIN" style="ellipse;whiteSpace=wrap;html=1;" parent="WIyWlLk6GJQsqaUBKTNV-1" vertex="1">
          <mxGeometry x="50" y="-3430" width="80" height="40" as="geometry" />
        </mxCell>
        <mxCell id="3zMqxZnbhDVnHztFKcLT-106" value="denominación (parametrización)&lt;br&gt;{&lt;br&gt;&lt;span style=&quot;white-space: pre;&quot;&gt;&#x9;&lt;/span&gt;devolución&lt;br&gt;}" style="text;html=1;align=left;verticalAlign=middle;resizable=0;points=[];autosize=1;strokeColor=none;fillColor=none;" parent="WIyWlLk6GJQsqaUBKTNV-1" vertex="1">
          <mxGeometry x="690" y="-4080" width="190" height="70" as="geometry" />
        </mxCell>
        <mxCell id="3zMqxZnbhDVnHztFKcLT-107" value="saludar () {&lt;br&gt;&lt;span style=&quot;white-space: pre;&quot;&gt;&#x9;&lt;/span&gt;print (&quot;HOLA&quot;)&lt;br&gt;}" style="text;html=1;align=left;verticalAlign=middle;resizable=0;points=[];autosize=1;strokeColor=#82b366;fillColor=#d5e8d4;gradientColor=#97d077;" parent="WIyWlLk6GJQsqaUBKTNV-1" vertex="1">
          <mxGeometry x="140" y="-4080" width="130" height="60" as="geometry" />
        </mxCell>
        <mxCell id="3zMqxZnbhDVnHztFKcLT-108" value="saludar (nombre) {&lt;br&gt;&lt;span style=&quot;white-space: pre;&quot;&gt;&#x9;&lt;/span&gt;print (&quot;HOLA &quot;+nombre)&lt;br&gt;}" style="text;html=1;align=left;verticalAlign=middle;resizable=0;points=[];autosize=1;strokeColor=#82b366;fillColor=#d5e8d4;gradientColor=#97d077;" parent="WIyWlLk6GJQsqaUBKTNV-1" vertex="1">
          <mxGeometry x="275" y="-4080" width="180" height="60" as="geometry" />
        </mxCell>
        <mxCell id="3zMqxZnbhDVnHztFKcLT-109" value="sumarDosNumeros (num1, num2) {&lt;br&gt;&lt;span style=&quot;white-space: pre;&quot;&gt;&#x9;&lt;/span&gt;resultado = num1 + num2&lt;br&gt;&lt;span style=&quot;white-space: pre;&quot;&gt;&#x9;&lt;/span&gt;return resultado&lt;br&gt;}" style="text;html=1;align=left;verticalAlign=middle;resizable=0;points=[];autosize=1;strokeColor=#82b366;fillColor=#d5e8d4;gradientColor=#97d077;" parent="WIyWlLk6GJQsqaUBKTNV-1" vertex="1">
          <mxGeometry x="275" y="-4015" width="210" height="70" as="geometry" />
        </mxCell>
        <mxCell id="3zMqxZnbhDVnHztFKcLT-110" value="devovlerSaludo () {&lt;br&gt;&lt;span style=&quot;white-space: pre;&quot;&gt;&#x9;&lt;/span&gt;return &quot;Hola Mundo&quot;&lt;br&gt;}" style="text;html=1;align=left;verticalAlign=middle;resizable=0;points=[];autosize=1;strokeColor=#82b366;fillColor=#d5e8d4;gradientColor=#97d077;" parent="WIyWlLk6GJQsqaUBKTNV-1" vertex="1">
          <mxGeometry x="275" y="-3940" width="160" height="60" as="geometry" />
        </mxCell>
        <mxCell id="0uHeM9jNWHcEoFtoT-T1-0" value="AND" style="text;html=1;strokeColor=none;fillColor=none;align=center;verticalAlign=middle;whiteSpace=wrap;rounded=0;" vertex="1" parent="WIyWlLk6GJQsqaUBKTNV-1">
          <mxGeometry x="375" y="-1160" width="60" height="30" as="geometry" />
        </mxCell>
        <mxCell id="0uHeM9jNWHcEoFtoT-T1-1" value="OR" style="text;html=1;strokeColor=none;fillColor=none;align=center;verticalAlign=middle;whiteSpace=wrap;rounded=0;" vertex="1" parent="WIyWlLk6GJQsqaUBKTNV-1">
          <mxGeometry x="300" y="-1130" width="60" height="30" as="geometry" />
        </mxCell>
        <mxCell id="0uHeM9jNWHcEoFtoT-T1-2" value="NAND" style="text;html=1;strokeColor=none;fillColor=none;align=center;verticalAlign=middle;whiteSpace=wrap;rounded=0;" vertex="1" parent="WIyWlLk6GJQsqaUBKTNV-1">
          <mxGeometry x="445" y="-1130" width="60" height="30" as="geometry" />
        </mxCell>
        <mxCell id="0uHeM9jNWHcEoFtoT-T1-3" value="OR" style="text;html=1;strokeColor=none;fillColor=none;align=center;verticalAlign=middle;whiteSpace=wrap;rounded=0;" vertex="1" parent="WIyWlLk6GJQsqaUBKTNV-1">
          <mxGeometry x="300" y="-1160" width="60" height="30" as="geometry" />
        </mxCell>
        <mxCell id="0uHeM9jNWHcEoFtoT-T1-4" value="TRUE" style="text;html=1;strokeColor=#82b366;fillColor=#d5e8d4;align=center;verticalAlign=middle;whiteSpace=wrap;rounded=0;" vertex="1" parent="WIyWlLk6GJQsqaUBKTNV-1">
          <mxGeometry x="300" y="-1120" width="60" height="30" as="geometry" />
        </mxCell>
        <mxCell id="0uHeM9jNWHcEoFtoT-T1-5" value="TRUE" style="text;html=1;strokeColor=#82b366;fillColor=#d5e8d4;align=center;verticalAlign=middle;whiteSpace=wrap;rounded=0;" vertex="1" parent="WIyWlLk6GJQsqaUBKTNV-1">
          <mxGeometry x="300" y="-1060" width="60" height="30" as="geometry" />
        </mxCell>
        <mxCell id="0uHeM9jNWHcEoFtoT-T1-6" value="TRUE" style="text;html=1;strokeColor=#82b366;fillColor=#d5e8d4;align=center;verticalAlign=middle;whiteSpace=wrap;rounded=0;" vertex="1" parent="WIyWlLk6GJQsqaUBKTNV-1">
          <mxGeometry x="300" y="-1030" width="60" height="30" as="geometry" />
        </mxCell>
        <mxCell id="0uHeM9jNWHcEoFtoT-T1-7" value="FALSE" style="text;html=1;strokeColor=#b85450;fillColor=#f8cecc;align=center;verticalAlign=middle;whiteSpace=wrap;rounded=0;" vertex="1" parent="WIyWlLk6GJQsqaUBKTNV-1">
          <mxGeometry x="300" y="-1090" width="60" height="30" as="geometry" />
        </mxCell>
        <mxCell id="0uHeM9jNWHcEoFtoT-T1-8" value="NAND&lt;br&gt;" style="text;html=1;strokeColor=none;fillColor=none;align=center;verticalAlign=middle;whiteSpace=wrap;rounded=0;" vertex="1" parent="WIyWlLk6GJQsqaUBKTNV-1">
          <mxGeometry x="445" y="-1160" width="60" height="30" as="geometry" />
        </mxCell>
        <mxCell id="0uHeM9jNWHcEoFtoT-T1-9" value="FALSE" style="text;html=1;strokeColor=#b85450;fillColor=#f8cecc;align=center;verticalAlign=middle;whiteSpace=wrap;rounded=0;" vertex="1" parent="WIyWlLk6GJQsqaUBKTNV-1">
          <mxGeometry x="445" y="-1120" width="60" height="30" as="geometry" />
        </mxCell>
        <mxCell id="0uHeM9jNWHcEoFtoT-T1-10" value="TRUE" style="text;html=1;strokeColor=#82b366;fillColor=#d5e8d4;align=center;verticalAlign=middle;whiteSpace=wrap;rounded=0;" vertex="1" parent="WIyWlLk6GJQsqaUBKTNV-1">
          <mxGeometry x="445" y="-1090" width="60" height="30" as="geometry" />
        </mxCell>
        <mxCell id="0uHeM9jNWHcEoFtoT-T1-11" value="TRUE" style="text;html=1;strokeColor=#82b366;fillColor=#d5e8d4;align=center;verticalAlign=middle;whiteSpace=wrap;rounded=0;" vertex="1" parent="WIyWlLk6GJQsqaUBKTNV-1">
          <mxGeometry x="445" y="-1060" width="60" height="30" as="geometry" />
        </mxCell>
        <mxCell id="0uHeM9jNWHcEoFtoT-T1-12" value="TRUE" style="text;html=1;strokeColor=#82b366;fillColor=#d5e8d4;align=center;verticalAlign=middle;whiteSpace=wrap;rounded=0;" vertex="1" parent="WIyWlLk6GJQsqaUBKTNV-1">
          <mxGeometry x="445" y="-1030" width="60" height="30" as="geometry" />
        </mxCell>
        <mxCell id="0uHeM9jNWHcEoFtoT-T1-13" value="FALSE" style="text;html=1;strokeColor=#b85450;fillColor=#f8cecc;align=center;verticalAlign=middle;whiteSpace=wrap;rounded=0;" vertex="1" parent="WIyWlLk6GJQsqaUBKTNV-1">
          <mxGeometry x="375" y="-1120" width="60" height="30" as="geometry" />
        </mxCell>
        <mxCell id="0uHeM9jNWHcEoFtoT-T1-14" value="FALSE" style="text;html=1;strokeColor=#b85450;fillColor=#f8cecc;align=center;verticalAlign=middle;whiteSpace=wrap;rounded=0;" vertex="1" parent="WIyWlLk6GJQsqaUBKTNV-1">
          <mxGeometry x="375" y="-1090" width="60" height="30" as="geometry" />
        </mxCell>
        <mxCell id="0uHeM9jNWHcEoFtoT-T1-15" value="TRUE" style="text;html=1;strokeColor=#82b366;fillColor=#d5e8d4;align=center;verticalAlign=middle;whiteSpace=wrap;rounded=0;" vertex="1" parent="WIyWlLk6GJQsqaUBKTNV-1">
          <mxGeometry x="375" y="-1060" width="60" height="30" as="geometry" />
        </mxCell>
        <mxCell id="0uHeM9jNWHcEoFtoT-T1-16" value="TRUE" style="text;html=1;strokeColor=#82b366;fillColor=#d5e8d4;align=center;verticalAlign=middle;whiteSpace=wrap;rounded=0;" vertex="1" parent="WIyWlLk6GJQsqaUBKTNV-1">
          <mxGeometry x="375" y="-1030" width="60" height="30" as="geometry" />
        </mxCell>
      </root>
    </mxGraphModel>
  </diagram>
</mxfile>
